<svg xmlns="http://www.w3.org/2000/svg" xmlns:xlink="http://www.w3.org/1999/xlink" height="321" viewBox="0 0 379 321" width="379"><svg height="56" viewBox="0 0 232 56" width="232" x="15" y="15"><defs><clipPath id="b"><path d="M143.33 37.136h-11.559V16.527a2.433 2.433 0 0 0-4.866 0V39.57a2.432 2.432 0 0 0 2.436 2.43h13.989a2.432 2.432 0 0 0 0-4.864" fill="none"/></clipPath><linearGradient id="a" x1="7747.094" y1="8511.682" x2="7747.712" y2="8511.682" gradientTransform="rotate(.666 -247567064.442 -227971068.51) scale(339.985)" gradientUnits="userSpaceOnUse"><stop offset="0" stop-color="#476fbd"/><stop offset=".215" stop-color="#476fbd"/><stop offset=".388" stop-color="#3480b8"/><stop offset=".722" stop-color="#149db0"/><stop offset=".906" stop-color="#08a8ad"/><stop offset="1" stop-color="#08a8ad"/></linearGradient><clipPath id="c"><path d="M165.067 14.615a2.444 2.444 0 0 0-3.424.4l-9.123 11.562a2.441 2.441 0 0 0-.519 1.51v11.287a2.432 2.432 0 1 0 4.863 0V28.929l8.6-10.9a2.438 2.438 0 0 0-.4-3.418" fill="none"/></clipPath><linearGradient id="d" x1="7747.096" y1="8511.681" x2="7747.716" y2="8511.681" gradientTransform="matrix(339.98 3.953 3.953 -339.98 -2667490.82 2863197.33)" xlink:href="#a"/><clipPath id="e"><path d="M151.994 20.809l-4.572-5.79a2.433 2.433 0 1 0-3.819 3.015l4.57 5.788a2.437 2.437 0 0 0 3.414.4 2.439 2.439 0 0 0 .407-3.417" fill="none"/></clipPath><linearGradient id="f" x1="7747.098" y1="8511.665" x2="7747.712" y2="8511.665" gradientTransform="matrix(339.99 3.954 3.954 -339.99 -2667570.82 2863268.83)" xlink:href="#a"/><clipPath id="g"><path d="M179.754 24.907c-5.457-.83-5.987-2.055-5.987-3.358 0-2.222 3.01-2.887 5.541-2.887a8.455 8.455 0 0 1 6.078 2.736 2.585 2.585 0 0 0 3.562.3 2.433 2.433 0 0 0 .292-3.426A13.5 13.5 0 0 0 179.313 14c-9.661 0-10.414 5.775-10.414 7.549 0 6.766 7.263 7.948 10.006 8.36 5.205.783 6.828 1.859 6.834 3.9.006 2.722-3.3 3.519-6.344 3.519a9.023 9.023 0 0 1-7.032-3.575 2.849 2.849 0 0 0-3.621-.3 2.428 2.428 0 0 0-.319 3.427 14.308 14.308 0 0 0 10.89 5.02c7.275 0 11.621-3.121 11.621-8.35 0-5.98-6.7-7.957-11.181-8.647" fill="none"/></clipPath><linearGradient id="h" x1="7747.095" y1="8511.684" x2="7747.713" y2="8511.684" gradientTransform="rotate(.666 -247559552.577 -227964190.933) scale(339.98)" xlink:href="#a"/><clipPath id="i"><path d="M23.14 14.1h-4.624a2.43 2.43 0 0 0-2.431 2.432v14.8a2.43 2.43 0 1 0 4.859 0V18.959h2.2a9.088 9.088 0 0 1 0 18.177h-4.529a2.432 2.432 0 1 0 0 4.864h4.525a13.952 13.952 0 1 0 0-27.9" fill="none"/></clipPath><linearGradient id="j" x1="7747.095" y1="8511.684" x2="7747.712" y2="8511.684" gradientTransform="rotate(.666 -247588265.88 -227990630.18) scale(340)" xlink:href="#a"/><clipPath id="k"><path d="M116.593 22.333a2.433 2.433 0 0 0-2.436 2.429v12.374h-2.191a9.088 9.088 0 0 1 0-18.177h4.522a2.432 2.432 0 1 0 0-4.863h-4.522a13.952 13.952 0 0 0 0 27.9h4.627a2.433 2.433 0 0 0 2.434-2.43V24.762a2.432 2.432 0 0 0-2.434-2.429" fill="none"/></clipPath><linearGradient id="l" x1="7747.096" y1="8511.68" x2="7747.714" y2="8511.68" gradientTransform="matrix(339.97 3.953 3.953 -339.97 -2667418.32 2863120.33)" xlink:href="#a"/><clipPath id="m"><path d="M85.322 41.94c-2.853 0-6.241-1.726-10.077-5.137-2.43-2.168-5.225-5.116-5.225-8.774 0-3.86 2.936-6.867 5.491-9.059 3.826-3.272 7.038-4.86 9.811-4.86a7.885 7.885 0 0 1 7.532 4.728c1.064 2.212 1.558 5.134 1.558 9.19 0 9.232-3.057 13.911-9.09 13.911m0-23.087c-.883 0-2.939.479-6.723 3.724-2.579 2.208-3.837 3.988-3.837 5.452 0 1.359 1.16 3.021 3.635 5.231 2.816 2.5 5.339 3.94 6.925 3.94 1.413 0 4.345 0 4.345-9.171 0-3.273-.36-5.607-1.086-7.144a3.194 3.194 0 0 0-3.259-2.032" fill="none"/></clipPath><linearGradient id="n" x1="7747.093" y1="8511.682" x2="7747.711" y2="8511.682" gradientTransform="matrix(339.96 3.953 3.953 -339.96 -2667328.32 2863025.33)" xlink:href="#a"/><clipPath id="o"><path d="M51.424 41.94c-6.036 0-9.09-4.679-9.09-13.911 0-4.057.488-6.978 1.551-9.19a7.893 7.893 0 0 1 7.539-4.728c2.773 0 5.987 1.589 9.807 4.86 2.556 2.191 5.493 5.2 5.493 9.059 0 3.658-2.788 6.606-5.226 8.774-3.831 3.41-7.219 5.137-10.074 5.137m0-23.087a3.178 3.178 0 0 0-3.252 2.032c-.737 1.536-1.094 3.87-1.094 7.144 0 9.171 2.935 9.171 4.346 9.171 1.588 0 4.1-1.439 6.922-3.94 2.48-2.21 3.637-3.872 3.637-5.231 0-1.464-1.255-3.244-3.831-5.452-3.788-3.244-5.839-3.724-6.728-3.724" fill="none"/></clipPath><linearGradient id="p" x1="7747.092" y1="8511.683" x2="7747.71" y2="8511.683" gradientTransform="matrix(339.95 3.953 3.953 -339.95 -2667266.82 2862960.33)" xlink:href="#a"/><symbol id="q" data-name="logo_full" viewBox="0 0 232 56"><path fill="none" d="M0 0h232v56H0z"/><g clip-path="url(#b)"><path fill="url(#a)" d="M126.907 13.876l19.178.221-.326 28.124-19.18-.224.328-28.121z"/></g><g clip-path="url(#c)"><path fill="url(#d)" d="M152.004 13.62l14.618.17-.327 28.183-14.618-.172.327-28.181z"/></g><g clip-path="url(#e)"><path fill="url(#f)" d="M142.769 13.668l10.181.119-.13 11.077-10.179-.119.128-11.077z"/></g><g clip-path="url(#g)"><path fill="url(#h)" d="M167.565 13.727l23.696.276-.328 28.175-23.696-.275.328-28.176z"/></g><g clip-path="url(#i)"><path fill="url(#j)" d="M16.088 13.85l21.331.247-.327 28.147-21.331-.247.327-28.147z"/></g><g clip-path="url(#k)"><path fill="url(#l)" d="M98.02 13.85l21.331.247-.328 28.147-21.331-.247.328-28.147z"/></g><g clip-path="url(#m)"><path fill="url(#n)" d="M70.023 13.827l24.714.286-.326 28.112-24.717-.29.329-28.108z"/></g><g clip-path="url(#o)"><path fill="url(#p)" d="M42.338 13.827l24.709.286-.328 28.112-24.709-.29.328-28.108z"/></g></symbol></defs><use data-name="logo_full" width="232" height="56" xlink:href="#q"/></svg><svg height="56" viewBox="0 0 64 56" width="64" x="15" y="86"><defs><symbol id="r" data-name="logo_simbol" viewBox="0 0 64 56"><path class="cls-1" fill="none" d="M0 0h64v56H0z"/><path class="cls-2" d="M39.13 24h-.06a2.37 2.37 0 0 0-2.33 2.36 2.33 2.33 0 0 0 .17.91A2.38 2.38 0 1 0 39.13 24" fill="#08a9ae"/><path class="cls-2" d="M33.15 12a17.15 17.15 0 0 0-11.32 30 23 23 0 0 1 .63-2.38 11.71 11.71 0 0 1 8-8 5.05 5.05 0 0 0 .79 1.38 4.73 4.73 0 0 0 .93.8.63.63 0 0 1 .17.8 27.93 27.93 0 0 0-1.19 3.4 9.8 9.8 0 0 0-.65 3.07 3.2 3.2 0 0 0 .91 1.59c.53.6 1.26 1.35 1.73 1.35s1.21-.75 1.74-1.35a3.19 3.19 0 0 0 .91-1.59 9.75 9.75 0 0 0-.65-3.07A27.51 27.51 0 0 0 34 34.62a.63.63 0 0 1 .17-.8 4.71 4.71 0 0 0 .92-.8 5 5 0 0 0 .82-1.35 11.71 11.71 0 0 1 8 8 23.06 23.06 0 0 1 .57 2.33 17.15 17.15 0 0 0-11.33-30m5.93 18.72l-11.92-.08a4.35 4.35 0 0 1-.22-8.69h5.4v-2.76a2 2 0 1 1 1.6 0V22h5.45a4.35 4.35 0 0 1-.32 8.69" fill="#08a9ae"/><path class="cls-2" d="M27.27 23.92h-.05a2.52 2.52 0 1 0 .05 0" fill="#08a9ae"/></symbol></defs><use width="64" height="56" xlink:href="#r" data-name="Layer 2"/></svg><svg height="36" viewBox="0 0 36 36" width="36" x="94" y="86"><defs><symbol id="s" data-name="archive" viewBox="0 0 36 36"><path class="cls-2" d="M16.24 9.62h-1.87a.7.7 0 0 0-.64.42 1.25 1.25 0 0 1-2.29 0 .7.7 0 0 0-.64-.42H8.92a.7.7 0 0 0-.49.21.69.69 0 0 0-.21.49v15.37a.69.69 0 0 0 .21.49.7.7 0 0 0 .49.21h7.32a.7.7 0 0 0 .7-.7V10.31a.7.7 0 0 0-.7-.69zM15.54 25H9.62V11h.77a2.64 2.64 0 0 0 4.39 0h.77z" fill="#8ba5a6"/><path class="cls-2" d="M13.62 14.4h-2.08a.81.81 0 0 0-.81.81v3.58a.81.81 0 0 0 .81.81h2.08a.81.81 0 0 0 .81-.81v-3.58a.81.81 0 0 0-.81-.81zm-.24 4.15h-1.61v-3.1h1.61z" fill="#8ba5a6"/><circle class="cls-2" cx="12.58" cy="22.85" r="1.2" fill="#8ba5a6"/><path class="cls-2" d="M24.46 14.4h-2.08a.81.81 0 0 0-.81.81v3.58a.81.81 0 0 0 .81.81h2.08a.81.81 0 0 0 .81-.81v-3.58a.8.8 0 0 0-.24-.57.8.8 0 0 0-.57-.24zm-.24 4.15h-1.61v-3.1h1.61z" fill="#8ba5a6"/><path class="cls-2" d="M27.08 9.62H25.2a.7.7 0 0 0-.64.42 1.25 1.25 0 0 1-2.29 0 .7.7 0 0 0-.64-.42h-1.87a.7.7 0 0 0-.7.7v15.37a.7.7 0 0 0 .7.7h7.32a.7.7 0 0 0 .7-.7V10.31a.7.7 0 0 0-.7-.69zM26.38 25h-5.92V11h.77a2.64 2.64 0 0 0 4.39 0h.77z" fill="#8ba5a6"/><circle class="cls-2" cx="23.42" cy="22.85" r="1.2" fill="#8ba5a6"/></symbol></defs><title>archive</title><use width="36" height="36" xlink:href="#s" data-name="Layer 2"/></svg><svg height="36" viewBox="0 0 36 36" width="36" x="145" y="86"><defs><symbol id="t" data-name="archive_hover" viewBox="0 0 36 36"><path class="cls-2" d="M16.24 9.62h-1.87a.7.7 0 0 0-.64.42 1.25 1.25 0 0 1-2.29 0 .7.7 0 0 0-.64-.42H8.92a.7.7 0 0 0-.49.21.69.69 0 0 0-.21.49v15.37a.69.69 0 0 0 .21.49.7.7 0 0 0 .49.21h7.32a.7.7 0 0 0 .7-.7V10.31a.7.7 0 0 0-.7-.69zM15.54 25H9.62V11h.77a2.64 2.64 0 0 0 4.39 0h.77z" fill="#4b4b4b"/><path class="cls-2" d="M13.62 14.4h-2.08a.81.81 0 0 0-.81.81v3.58a.81.81 0 0 0 .81.81h2.08a.81.81 0 0 0 .81-.81v-3.58a.81.81 0 0 0-.81-.81zm-.24 4.15h-1.61v-3.1h1.61z" fill="#4b4b4b"/><circle class="cls-2" cx="12.58" cy="22.85" r="1.2" fill="#4b4b4b"/><path class="cls-2" d="M24.46 14.4h-2.08a.81.81 0 0 0-.81.81v3.58a.81.81 0 0 0 .81.81h2.08a.81.81 0 0 0 .81-.81v-3.58a.8.8 0 0 0-.24-.57.8.8 0 0 0-.57-.24zm-.24 4.15h-1.61v-3.1h1.61z" fill="#4b4b4b"/><path class="cls-2" d="M27.08 9.62H25.2a.7.7 0 0 0-.64.42 1.25 1.25 0 0 1-2.29 0 .7.7 0 0 0-.64-.42h-1.87a.7.7 0 0 0-.7.7v15.37a.7.7 0 0 0 .7.7h7.32a.7.7 0 0 0 .7-.7V10.31a.7.7 0 0 0-.7-.69zM26.38 25h-5.92V11h.77a2.64 2.64 0 0 0 4.39 0h.77z" fill="#4b4b4b"/><circle class="cls-2" cx="23.42" cy="22.85" r="1.2" fill="#4b4b4b"/></symbol></defs><title>archive_hover</title><use width="36" height="36" xlink:href="#t" data-name="Layer 2"/></svg><svg height="36" viewBox="0 0 36 36" width="36" x="196" y="86"><defs><symbol id="u" data-name="next_level" viewBox="0 0 36 36"><rect class="cls-1" width="36" height="36" rx="4" ry="4" fill="none"/><path data-name="_Compound_Path_" class="cls-2" d="M24.5 19l-3.11 3.1a.78.78 0 0 1-1.11-1.1l1.77-1.78h-9.9a.9.9 0 0 1-.88-.78v-4a.78.78 0 0 1 1.57 0v3.19H22l-1.72-1.78a.78.78 0 0 1 1.1-1.1l3.11 3.1A.78.78 0 0 1 24.5 19z" fill="#b7c4c7"/></symbol></defs><use width="36" height="36" xlink:href="#u" data-name="Layer 2"/></svg><svg height="32" viewBox="0 0 32 32" width="32" x="15" y="157"><defs><symbol id="v" data-name="archive_out" viewBox="0 0 32 32"><path class="cls-1" fill="none" d="M0 0h32v32H0z"/><path class="cls-2" d="M17.24 7.62h-1.87a.7.7 0 0 0-.64.42 1.25 1.25 0 0 1-2.29 0 .7.7 0 0 0-.64-.42H9.92a.7.7 0 0 0-.49.21.69.69 0 0 0-.21.49v15.37a.69.69 0 0 0 .21.49.7.7 0 0 0 .49.21h7.32a.7.7 0 0 0 .7-.7V8.31a.7.7 0 0 0-.7-.69zM16.54 23h-5.92V9h.77a2.64 2.64 0 0 0 4.39 0h.77z" fill="#4b4b4b"/><path class="cls-2" d="M14.62 12.4h-2.08a.81.81 0 0 0-.81.81v3.58a.81.81 0 0 0 .81.81h2.08a.81.81 0 0 0 .81-.81v-3.58a.81.81 0 0 0-.81-.81zm-.24 4.15h-1.61v-3.1h1.61z" fill="#4b4b4b"/><circle class="cls-2" cx="13.58" cy="20.85" r="1.2" fill="#4b4b4b"/><path class="cls-3" d="M25.48 14.42l-1.84-1.14a.59.59 0 0 0-.62 1l.6.37-3.52 1.21a.59.59 0 0 0 .19 1.14.57.57 0 0 0 .19 0L24 15.75l-.32.56a.59.59 0 0 0 .22.8.57.57 0 0 0 .29.08.59.59 0 0 0 .51-.3l1-1.69a.59.59 0 0 0-.22-.78z" fill="#323232"/></symbol></defs><g data-name="Layer 2"><use data-name="archive_out" width="32" height="32" xlink:href="#v"/></g></svg><svg height="24" viewBox="0 0 24 24" width="24" x="62" y="157"><defs><symbol id="w" data-name="item_delete" viewBox="0 0 24 24"><path class="cls-1" fill="none" d="M0 0h24v24H0z"/><path data-name="_Compound_Path_" class="cls-2" d="M17.64 9.19l-.53 10.07a.7.7 0 0 1-.7.66H7.58a.7.7 0 0 1-.7-.66L6.36 9.19a.7.7 0 1 1 1.39-.07l.5 9.41h7.51l.5-9.41a.7.7 0 1 1 1.39.07zm1.85-2.33a.7.7 0 0 1-.7.7H5.21a.7.7 0 0 1 0-1.39H9V4.6a.5.5 0 0 1 .56-.52h4.8a.5.5 0 0 1 .64.52v1.57h3.83a.7.7 0 0 1 .66.69zm-9.23-.7h3.48v-.87h-3.48zm.29 11.32a.64.64 0 0 0 .6-.66L11 9.3a.61.61 0 0 0-.62-.6.61.61 0 0 0-.6.62l.18 7.55a.64.64 0 0 0 .59.62zm2.87 0a.63.63 0 0 0 .61-.61l.18-7.52a.61.61 0 0 0-.6-.63.6.6 0 0 0-.62.59l-.18 7.53a.62.62 0 0 0 .6.64z" fill="#4b4b4b"/></symbol></defs><use width="24" height="24" xlink:href="#w" data-name="Layer 2"/></svg><svg height="24" viewBox="0 0 24 24" width="24" x="101" y="157"><defs><symbol id="x" data-name="copy_button" viewBox="0 0 24 24"><path class="cls-1" fill="none" d="M0 0h24v24H0z"/><path data-name="_Compound_Path_" class="cls-2" d="M12 7.79a.59.59 0 0 0-.44-.15H6.35c-.34 0-.79.21-.79.55v11a1 1 0 0 0 .79.79h8.25c.34 0 .53-.45.53-.79v-8a.54.54 0 0 0-.13-.42zm1.73 3.51h-2.25V9.05zm-6.78 7.32V8.86h3.31v3a.69.69 0 0 0 .66.65h3v6.1zM18.33 7.13l-3-3A.45.45 0 0 0 15 4H9.75c-.29 0-.53.15-.53.44v1.67a.52.52 0 1 0 1 0V5h3.66v3a.55.55 0 0 0 .54.54h2.98V15h-.72a.52.52 0 1 0 0 1H18c.29 0 .44-.26.44-.55v-8a.49.49 0 0 0-.11-.32zM15 5.21l2.24 2.26H15z" fill="#8ba5a6"/></symbol></defs><use width="24" height="24" xlink:href="#x" data-name="Layer 2"/></svg><svg height="24" viewBox="0 0 24 24" width="24" x="140" y="157"><defs><symbol id="y" data-name="cursor_up" viewBox="0 0 24 24"><g id="z"><path class="cls-1" d="M24 0v24H0V0z" fill="none"/><path data-name="_Compound_Path_" class="cls-2" d="M12 9a.7.7 0 0 1 .5.21l4.35 4.53a.7.7 0 1 1-1 1l-3.85-4-3.85 4a.7.7 0 0 1-1-1l4.35-4.49A.7.7 0 0 1 12 9z" fill="#8ba5a6"/></g></symbol></defs><g data-name="Layer 2"><use data-name="cursor_up" width="24" height="24" xlink:href="#y"/></g></svg><svg height="24" viewBox="0 0 24 24" width="24" x="179" y="157"><use width="24" height="24" xlink:href="#z" data-name="Layer 2"/></svg><svg height="24" viewBox="0 0 24 24" width="24" x="218" y="157"><defs><symbol id="A" data-name="delete" viewBox="0 0 24 24"><path class="cls-1" fill="none" d="M0 0h24v24H0z"/><path data-name="_Compound_Path_" class="cls-2" d="M17.64 8.12l-.53 10.07a.7.7 0 0 1-.7.66H7.58a.7.7 0 0 1-.7-.66L6.36 8.12A.7.7 0 0 1 7.75 8l.5 9.41h7.51L16.25 8a.7.7 0 1 1 1.39.07zm1.85-2.33a.7.7 0 0 1-.7.7H5.21a.7.7 0 0 1 0-1.39H9V3.52A.5.5 0 0 1 9.6 3h4.8a.5.5 0 0 1 .56.52v1.57h3.83a.7.7 0 0 1 .7.7zm-9.23-.7h3.48v-.87h-3.48zm.29 11.32a.64.64 0 0 0 .6-.66L11 8.22a.61.61 0 0 0-.62-.6.61.61 0 0 0-.6.62l.18 7.55a.64.64 0 0 0 .59.62zm2.87 0a.63.63 0 0 0 .58-.61l.18-7.52a.61.61 0 0 0-.6-.63.6.6 0 0 0-.62.59l-.18 7.53a.62.62 0 0 0 .6.64z" fill="#fff"/></symbol></defs><use width="24" height="24" xlink:href="#A" data-name="Layer 2"/></svg><svg height="24" viewBox="0 0 24 24" width="24" x="15" y="204"><defs><symbol id="B" data-name="edit_hover_2" viewBox="0 0 24 24"><path class="cls-1" fill="none" d="M0 0h24v24H0z"/><path class="cls-2" d="M8 12a2 2 0 1 0-2 2 2 2 0 0 0 2-2zm2 0a2 2 0 1 0 2-2 2 2 0 0 0-2 2zm6 0a2 2 0 1 0 2-2 2 2 0 0 0-2 2z" fill="#08a9ae"/></symbol></defs><use width="24" height="24" xlink:href="#B" data-name="Layer 2"/></svg><svg height="24" viewBox="0 0 24 24" width="24" x="54" y="204"><defs><symbol id="C" data-name="edit_hover" viewBox="0 0 24 24"><path class="cls-1" fill="none" d="M0 0h24v24H0z"/><path class="cls-2" d="M8 12a2 2 0 1 0-2 2 2 2 0 0 0 2-2zm2 0a2 2 0 1 0 2-2 2 2 0 0 0-2 2zm6 0a2 2 0 1 0 2-2 2 2 0 0 0-2 2z" fill="#e5d68a"/></symbol></defs><use width="24" height="24" xlink:href="#C" data-name="Layer 2"/></svg><svg height="24" viewBox="0 0 24 24" width="24" x="93" y="204"><defs><symbol id="D" data-name="edit" viewBox="0 0 24 24"><path class="cls-1" fill="none" d="M0 0h24v24H0z"/><path class="cls-2" d="M8 12a2 2 0 1 0-2 2 2 2 0 0 0 2-2zm2 0a2 2 0 1 0 2-2 2 2 0 0 0-2 2zm6 0a2 2 0 1 0 2-2 2 2 0 0 0-2 2z" fill="#b7c4c7"/></symbol></defs><use width="24" height="24" xlink:href="#D" data-name="Layer 2"/></svg><svg height="24" viewBox="0 0 24 24" width="24" x="132" y="204"><defs><symbol id="E" data-name="field_error" viewBox="0 0 24 24"><path data-name="_Compound_Path_" class="cls-2" d="M19.32 19.14H4.69a.7.7 0 0 1-.61-1l7.31-12.93a.7.7 0 0 1 1.21 0l7.32 12.89a.7.7 0 0 1-.61 1zM5.88 17.75h12.24L12 7zm6.82-4.17v-3.24a.7.7 0 0 0-1.39 0v3.24a.7.7 0 1 0 1.39 0zm-.08 2.89a.88.88 0 1 0-.62.25.88.88 0 0 0 .62-.24z" fill="#ff4646"/></symbol></defs><use width="24" height="24" xlink:href="#E" data-name="Layer 2"/></svg><svg height="24" viewBox="0 0 24 24" width="24" x="171" y="204"><defs><symbol id="F" data-name="file_select" viewBox="0 0 24 24"><path class="cls-1" fill="none" d="M0 0h24v24H0z"/><path data-name="_Compound_Path_" class="cls-2" d="M19 10.36a.61.61 0 0 1 0 .86l-6.93 6.92a5.39 5.39 0 0 1-3.71 1.77 3.57 3.57 0 0 1-.93-.12 3.52 3.52 0 0 1-2.49-2.54 4.86 4.86 0 0 1 1.56-4.67l7.72-7.72a2.78 2.78 0 0 1 4 .15 2.65 2.65 0 0 1 .06 3.92l-7.78 7.78c-1 1-2.19 1-2.79.35s-.67-1.75.36-2.78L13.34 9a.61.61 0 0 1 .86.86l-5.27 5.28c-.46.46-.53.89-.36 1.05s.61.11 1.07-.35l7.79-7.78a1.46 1.46 0 0 0-.06-2.19 1.56 1.56 0 0 0-2.28-.15l-7.73 7.72a3.69 3.69 0 0 0-1.24 3.51 2.31 2.31 0 0 0 1.63 1.68 3.68 3.68 0 0 0 3.46-1.34l6.93-6.92a.61.61 0 0 1 .86 0z" fill="#406464"/></symbol></defs><use width="24" height="24" xlink:href="#F" data-name="Layer 2"/></svg><svg height="24" viewBox="0 0 24 24" width="24" x="210" y="204"><defs><symbol id="G" data-name="file" viewBox="0 0 24 24"><path class="cls-1" fill="none" d="M0 0h24v24H0z"/><path data-name="_Compound_Path_" class="cls-2" d="M19 10.36a.61.61 0 0 1 0 .86l-6.93 6.92a5.39 5.39 0 0 1-3.71 1.77 3.57 3.57 0 0 1-.93-.12 3.52 3.52 0 0 1-2.49-2.54 4.86 4.86 0 0 1 1.56-4.67l7.72-7.72a2.78 2.78 0 0 1 4 .15 2.65 2.65 0 0 1 .06 3.92l-7.78 7.78c-1 1-2.19 1-2.79.35s-.67-1.75.36-2.78L13.34 9a.61.61 0 0 1 .86.86l-5.27 5.28c-.46.46-.53.89-.36 1.05s.61.11 1.07-.35l7.79-7.78a1.46 1.46 0 0 0-.06-2.19 1.56 1.56 0 0 0-2.28-.15l-7.73 7.72a3.69 3.69 0 0 0-1.24 3.51 2.31 2.31 0 0 0 1.63 1.68 3.68 3.68 0 0 0 3.46-1.34l6.93-6.92a.61.61 0 0 1 .86 0z" fill="#8ba5a6"/></symbol></defs><use width="24" height="24" xlink:href="#G" data-name="Layer 2"/></svg><svg height="24" viewBox="0 0 24 24" width="24" x="262" y="15"><defs><symbol id="H" data-name="filter_select" viewBox="0 0 24 24"><path data-name="_Compound_Path_" class="cls-1" d="M10.21 6.43a.87.87 0 0 1 .87-.87h7.63a.87.87 0 1 1 0 1.74h-7.63a.87.87 0 0 1-.87-.87zm8.5 4.7h-7.63a.87.87 0 1 0 0 1.74h7.63a.87.87 0 1 0 0-1.74zm0 5.57h-7.63a.87.87 0 1 0 0 1.74h7.63a.87.87 0 0 0 0-1.74zM8.25 5.12a.61.61 0 0 0-.61-.61H5a.61.61 0 0 0-.61.61v2.61a.61.61 0 0 0 .61.61h2.65a.61.61 0 0 0 .61-.61zm0 8.19a.61.61 0 0 1-.61.61H5a.61.61 0 0 1-.61-.61v-2.62a.61.61 0 0 1 .61-.61h2.65a.61.61 0 0 1 .61.61zm-1-2H5.64v1.39h1.57zm1 7.58a.61.61 0 0 1-.61.61H5a.61.61 0 0 1-.61-.61v-2.62a.61.61 0 0 1 .61-.61h2.65a.61.61 0 0 1 .61.61zm-1-2H5.64v1.57h1.57z" fill="#406464"/><path class="cls-2" fill="none" d="M0 0h24v24H0z"/></symbol></defs><use width="24" height="24" xlink:href="#H" data-name="Layer 2"/></svg><svg height="24" viewBox="0 0 24 24" width="24" x="262" y="54"><defs><symbol id="I" data-name="filter" viewBox="0 0 24 24"><path data-name="_Compound_Path_" class="cls-1" d="M10.21 6.43a.87.87 0 0 1 .87-.87h7.63a.87.87 0 1 1 0 1.74h-7.63a.87.87 0 0 1-.87-.87zm8.5 4.7h-7.63a.87.87 0 1 0 0 1.74h7.63a.87.87 0 1 0 0-1.74zm0 5.57h-7.63a.87.87 0 0 0 0 1.74h7.63a.87.87 0 1 0 0-1.74zM8.26 5.12a.61.61 0 0 0-.61-.61H5a.61.61 0 0 0-.61.61v2.61a.61.61 0 0 0 .61.61h2.65a.61.61 0 0 0 .61-.61zm0 8.19a.61.61 0 0 1-.61.61H5a.61.61 0 0 1-.61-.61v-2.62a.61.61 0 0 1 .61-.61h2.65a.61.61 0 0 1 .61.61zm-1-2H5.64v1.39h1.57zm1 7.58a.61.61 0 0 1-.61.61H5a.61.61 0 0 1-.61-.61v-2.62a.61.61 0 0 1 .61-.61h2.65a.61.61 0 0 1 .61.61zm-1-2H5.64v1.57h1.57z" fill="#8ba5a6"/><path class="cls-2" fill="none" d="M0 0h24v24H0z"/></symbol></defs><use width="24" height="24" xlink:href="#I" data-name="Layer 2"/></svg><svg height="24" viewBox="0 0 24 24" width="24" x="262" y="93"><defs><symbol id="J" data-name="folder" viewBox="0 0 24 24"><path class="cls-1" fill="none" d="M0 0h24v24H0z"/><path data-name="_Compound_Path_" class="cls-2" d="M17.92 8h-6l-.76-1.24a.69.69 0 0 0-.6-.32H6.08a.7.7 0 0 0-.7.7v9.75a.7.7 0 0 0 .7.7h11.84a.7.7 0 0 0 .7-.7V8.71a.72.72 0 0 0-.7-.71zm-.7 8.19H6.77V7.82h3.39l.76 1.24a.69.69 0 0 0 .6.33h5.71z" fill="#b7c4c7"/></symbol></defs><use width="24" height="24" xlink:href="#J" data-name="Layer 2"/></svg><svg height="24" viewBox="0 0 24 24" width="24" x="262" y="132"><defs><symbol id="K" data-name="info" viewBox="0 0 24 24"><path data-name="_Compound_Path_" class="cls-2" d="M11.53 16.84a.61.61 0 0 1-.6-.73l.86-4.36-.47.27a.61.61 0 0 1-.6-1.06l1.63-.96a.61.61 0 0 1 .9.65l-.89 4.51.73-.32a.61.61 0 0 1 .48 1.16l-1.8.78a.61.61 0 0 1-.24.06zm1.73-8.32a.87.87 0 1 0-.62.26.88.88 0 0 0 .62-.25zM20 12a8 8 0 1 0-8 8 8 8 0 0 0 8-8zm-1.39 0A6.62 6.62 0 1 1 12 5.38 6.63 6.63 0 0 1 18.62 12z" fill="#ffcf99"/></symbol></defs><use width="24" height="24" xlink:href="#K" data-name="Layer 2"/></svg><svg height="24" viewBox="0 0 24 24" width="24" x="262" y="171"><defs><symbol id="L" data-name="item_copy_hover" viewBox="0 0 24 24"><path class="cls-1" fill="none" d="M0 0h24v24H0z"/><path data-name="_Compound_Path_" class="cls-2" d="M12 7.79a.59.59 0 0 0-.44-.15H6.35c-.34 0-.79.21-.79.55v11a1 1 0 0 0 .79.79h8.25c.34 0 .53-.45.53-.79v-8a.54.54 0 0 0-.13-.42zm1.73 3.51h-2.25V9.05zm-6.78 7.32V8.86h3.31v3a.69.69 0 0 0 .66.65h3v6.1zM18.33 7.13l-3-3A.45.45 0 0 0 15 4H9.75c-.29 0-.53.15-.53.44v1.67a.52.52 0 1 0 1 0V5h3.66v3a.55.55 0 0 0 .54.54h2.98V15h-.72a.52.52 0 1 0 0 1H18c.29 0 .44-.26.44-.55v-8a.49.49 0 0 0-.11-.32zM15 5.21l2.24 2.26H15z" fill="#08a9ae"/></symbol></defs><use width="24" height="24" xlink:href="#L" data-name="Layer 2"/></svg><svg height="24" viewBox="0 0 24 24" width="24" x="15" y="243"><defs><symbol id="M" data-name="item_copy" viewBox="0 0 24 24"><path class="cls-1" fill="none" d="M0 0h24v24H0z"/><path data-name="_Compound_Path_" class="cls-2" d="M12 7.79a.59.59 0 0 0-.44-.15H6.35c-.34 0-.79.21-.79.55v11a1 1 0 0 0 .79.79h8.25c.34 0 .53-.45.53-.79v-8a.54.54 0 0 0-.13-.42zm1.73 3.51h-2.25V9.05zm-6.78 7.32V8.86h3.31v3a.69.69 0 0 0 .66.65h3v6.1zM18.33 7.13l-3-3A.45.45 0 0 0 15 4H9.75c-.29 0-.53.15-.53.44v1.67a.52.52 0 1 0 1 0V5h3.66v3a.55.55 0 0 0 .54.54h2.98V15h-.72a.52.52 0 1 0 0 1H18c.29 0 .44-.26.44-.55v-8a.49.49 0 0 0-.11-.32zM15 5.21l2.24 2.26H15z" fill="#8ba5a6"/></symbol></defs><use width="24" height="24" xlink:href="#M" data-name="Layer 2"/></svg><svg height="24" viewBox="0 0 24 24" width="24" x="54" y="243"><defs><symbol id="N" data-name="item_delete_hover" viewBox="0 0 24 24"><path class="cls-1" fill="none" d="M0 0h24v24H0z"/><path data-name="_Compound_Path_" class="cls-2" d="M17.64 9.19l-.53 10.07a.7.7 0 0 1-.7.66H7.58a.7.7 0 0 1-.7-.66L6.36 9.19a.7.7 0 1 1 1.39-.07l.5 9.41h7.51l.5-9.41a.7.7 0 1 1 1.39.07zm1.85-2.33a.7.7 0 0 1-.7.7H5.21a.7.7 0 0 1 0-1.39H9V4.6a.5.5 0 0 1 .56-.52h4.8a.5.5 0 0 1 .64.52v1.57h3.83a.7.7 0 0 1 .66.69zm-9.23-.7h3.48v-.87h-3.48zm.29 11.32a.64.64 0 0 0 .6-.66L11 9.3a.61.61 0 0 0-.62-.6.61.61 0 0 0-.6.62l.18 7.55a.64.64 0 0 0 .59.62zm2.87 0a.63.63 0 0 0 .61-.61l.18-7.52a.61.61 0 0 0-.6-.63.6.6 0 0 0-.62.59l-.18 7.53a.62.62 0 0 0 .6.64z" fill="#08a9ae"/></symbol></defs><g data-name="Layer 2"><use data-name="item_delete_hover" width="24" height="24" xlink:href="#N"/></g></svg><svg height="24" viewBox="0 0 24 24" width="24" x="93" y="243"><defs><symbol id="O" data-name="item_delete_white" viewBox="0 0 24 24"><path class="cls-1" fill="none" d="M0 0h24v24H0z"/><path data-name="_Compound_Path_" class="cls-2" d="M17.64 9.19l-.53 10.07a.7.7 0 0 1-.7.66H7.58a.7.7 0 0 1-.7-.66L6.36 9.19a.7.7 0 1 1 1.39-.07l.5 9.41h7.51l.5-9.41a.7.7 0 1 1 1.39.07zm1.85-2.33a.7.7 0 0 1-.7.7H5.21a.7.7 0 0 1 0-1.39H9V4.6a.5.5 0 0 1 .56-.52h4.8a.5.5 0 0 1 .64.52v1.57h3.83a.7.7 0 0 1 .66.69zm-9.23-.7h3.48v-.87h-3.48zm.29 11.32a.64.64 0 0 0 .6-.66L11 9.3a.61.61 0 0 0-.62-.6.61.61 0 0 0-.6.62l.18 7.55a.64.64 0 0 0 .59.62zm2.87 0a.63.63 0 0 0 .61-.61l.18-7.52a.61.61 0 0 0-.6-.63.6.6 0 0 0-.62.59l-.18 7.53a.62.62 0 0 0 .6.64z" fill="#fff"/></symbol></defs><use width="24" height="24" xlink:href="#O" data-name="Layer 2"/></svg><svg height="24" viewBox="0 0 24 24" width="24" x="132" y="243"><defs><symbol id="P" data-name="apps" viewBox="0 0 24 24"><path data-name="_Compound_Path_" fill="#8ba5a6" d="M7.47 8.86a1.22 1.22 0 1 1 .86-.36 1.23 1.23 0 0 1-.86.36zm5.39-.36a1.22 1.22 0 1 0-.86.36 1.23 1.23 0 0 0 .86-.35zm4.53 0a1.22 1.22 0 1 0-.86.36 1.23 1.23 0 0 0 .86-.35zm-9.06 4.36a1.22 1.22 0 1 0-.86.36 1.23 1.23 0 0 0 .86-.36zm4.53 0a1.22 1.22 0 1 0-.86.36 1.23 1.23 0 0 0 .86-.36zm4.53 0a1.22 1.22 0 1 0-.86.36 1.23 1.23 0 0 0 .86-.36zm-9.06 4.36a1.22 1.22 0 1 0-.86.36 1.23 1.23 0 0 0 .86-.36zm4.53 0a1.22 1.22 0 1 0-.86.36 1.23 1.23 0 0 0 .86-.36zm4.53 0a1.22 1.22 0 1 0-.86.36 1.23 1.23 0 0 0 .86-.36z"/><path fill="none" d="M0 0h24v24H0z"/></symbol></defs><use width="24" height="24" xlink:href="#P" data-name="Layer 2"/></svg><svg height="24" viewBox="0 0 24 24" width="24" x="171" y="243"><defs><symbol id="Q" data-name="item_edit_hover" viewBox="0 0 24 24"><path class="cls-1" fill="none" d="M0 0h24v24H0z"/><path data-name="_Compound_Path_" class="cls-2" d="M18.9 5.5l-1.25-1.27a.52.52 0 0 0-.37-.16.53.53 0 0 0-.37.16l-7.29 7.4a.53.53 0 0 0-.11.18l-.81 2.08a.52.52 0 0 0 .68.68l2.06-.82a.55.55 0 0 0 .18-.12l7.3-7.4a.53.53 0 0 0-.02-.73zm-8 7.32l-.84.33.33-.86 6.85-6.95.52.52zm5.33-.62v7a.72.72 0 0 1-.73.7H5.64a.7.7 0 0 1-.7-.7V6a.67.67 0 0 1 .7-.67h7.24a.7.7 0 0 1 0 1.39H6.34v11.81h8.54v-6.34a.7.7 0 1 1 1.39 0z" fill="#08a9ae"/></symbol></defs><g data-name="Layer 2"><use data-name="item_edit_hover" width="24" height="24" xlink:href="#Q"/></g></svg><svg height="24" viewBox="0 0 24 24" width="24" x="210" y="243"><defs><symbol id="R" data-name="item_edit" viewBox="0 0 24 24"><path class="cls-1" fill="none" d="M0 0h24v24H0z"/><path data-name="_Compound_Path_" class="cls-2" d="M18.9 5.5l-1.25-1.27a.52.52 0 0 0-.37-.16.53.53 0 0 0-.37.16l-7.29 7.4a.53.53 0 0 0-.11.18l-.81 2.08a.52.52 0 0 0 .68.68l2.06-.82a.55.55 0 0 0 .18-.12l7.3-7.4a.53.53 0 0 0-.02-.73zm-8 7.32l-.84.33.33-.86 6.85-6.95.52.52zm5.33-.62v7a.72.72 0 0 1-.73.7H5.64a.7.7 0 0 1-.7-.7V6a.67.67 0 0 1 .7-.67h7.24a.7.7 0 0 1 0 1.39H6.34v11.81h8.54v-6.34a.7.7 0 1 1 1.39 0z" fill="#4b4b4b"/></symbol></defs><use width="24" height="24" xlink:href="#R" data-name="Layer 2"/></svg><svg height="24" viewBox="0 0 24 24" width="24" x="249" y="243"><defs><symbol id="S" data-name="item_move_hover" viewBox="0 0 24 24"><path class="cls-1" fill="none" d="M0 0h24v24H0z"/><path data-name="_Compound_Path_" class="cls-2" d="M15.86 9.21c-.73 0-2.56 1.82-3.9 3.11-2 2-3.94 3.86-5.47 3.86h-.93a.7.7 0 0 1 0-1.39h.94c1 0 2.93-1.95 4.5-3.47 1.91-1.85 3.57-3.5 4.87-3.5h.9l-1-.92a.67.67 0 0 1 0-1 .7.7 0 0 1 1 0l2.15 2.14a.7.7 0 0 1 0 1l-2.13 2.16a.69.69 0 0 1-.49.2.7.7 0 0 1-.49-.21.71.71 0 0 1 0-1l1-1zm.93 3.58a.7.7 0 0 0-1 0 .73.73 0 0 0 0 1l1 1h-.9c-.57 0-1.53-.85-2.48-1.73a.69.69 0 0 0-1 0 .72.72 0 0 0 0 1c1.44 1.35 2.42 2.1 3.43 2.1h.9l-1 .92a.68.68 0 0 0 0 1 .69.69 0 0 0 .49.2.7.7 0 0 0 .49-.21l2.15-2.14a.7.7 0 0 0 0-1zM5.56 9.21h.94c.73 0 1.83.93 2.7 1.72a.71.71 0 0 0 .47.2.68.68 0 0 0 .52-.22.72.72 0 0 0 0-1C8.77 8.66 7.63 7.82 6.5 7.82h-.94a.7.7 0 0 0 0 1.39z" fill="#08a9ae"/></symbol></defs><g data-name="Layer 2"><use data-name="item_move_hover" width="24" height="24" xlink:href="#S"/></g></svg><svg height="24" viewBox="0 0 24 24" width="24" x="301" y="15"><defs><symbol id="T" data-name="item_move" viewBox="0 0 24 24"><path class="cls-1" fill="none" d="M0 0h24v24H0z"/><path data-name="_Compound_Path_" class="cls-2" d="M15.86 9.21c-.73 0-2.56 1.82-3.9 3.11-2 2-3.94 3.86-5.47 3.86h-.93a.7.7 0 0 1 0-1.39h.94c1 0 2.93-1.95 4.5-3.47 1.91-1.85 3.57-3.5 4.87-3.5h.9l-1-.92a.67.67 0 0 1 0-1 .7.7 0 0 1 1 0l2.15 2.14a.7.7 0 0 1 0 1l-2.13 2.16a.69.69 0 0 1-.49.2.7.7 0 0 1-.49-.21.71.71 0 0 1 0-1l1-1zm.93 3.58a.7.7 0 0 0-1 0 .73.73 0 0 0 0 1l1 1h-.9c-.57 0-1.53-.85-2.48-1.73a.69.69 0 0 0-1 0 .72.72 0 0 0 0 1c1.44 1.35 2.42 2.1 3.43 2.1h.9l-1 .92a.68.68 0 0 0 0 1 .69.69 0 0 0 .49.2.7.7 0 0 0 .49-.21l2.15-2.14a.7.7 0 0 0 0-1zM5.56 9.21h.94c.73 0 1.83.93 2.7 1.72a.71.71 0 0 0 .47.2.68.68 0 0 0 .52-.22.72.72 0 0 0 0-1C8.77 8.66 7.63 7.82 6.5 7.82h-.94a.7.7 0 0 0 0 1.39z" fill="#4b4b4b"/></symbol></defs><use width="24" height="24" xlink:href="#T" data-name="Layer 2"/></svg><svg height="24" viewBox="0 0 24 24" width="24" x="301" y="54"><defs><symbol id="U" data-name="check_box_select" viewBox="0 0 24 24"><path class="cls-1" fill="none" d="M0 0h24v24H0z"/><rect class="cls-2" x="4" y="4" width="16" height="16" rx="2" ry="2" fill="#08a9ae"/><path data-name="_Compound_Path_" class="cls-3" d="M10.78 15.8a.54.54 0 0 1-.38-.16L8 13.24a.54.54 0 0 1 .77-.77l2 2 4.8-4.79a.54.54 0 0 1 .77.77l-5.18 5.18a.54.54 0 0 1-.38.17z" fill="#fff"/></symbol></defs><use width="24" height="24" xlink:href="#U" data-name="Layer 2"/></svg><svg height="24" viewBox="0 0 24 24" width="24" x="301" y="93"><defs><symbol id="V" data-name="check_box" viewBox="0 0 24 24"><path class="cls-1" fill="none" d="M0 0h24v24H0z"/><path class="cls-2" d="M18 5a1 1 0 0 1 1 1v12a1 1 0 0 1-1 1H6a1 1 0 0 1-1-1V6a1 1 0 0 1 1-1h12m0-1H6a2 2 0 0 0-2 2v12a2 2 0 0 0 2 2h12a2 2 0 0 0 2-2V6a2 2 0 0 0-2-2z" fill="#ccc"/></symbol></defs><g data-name="Layer 2"><use data-name="check_box" width="24" height="24" xlink:href="#V"/></g></svg><svg height="24" viewBox="0 0 24 24" width="24" x="301" y="132"><defs><symbol id="W" data-name="menu_item_edit_hover" viewBox="0 0 24 24"><path class="cls-1" fill="none" d="M0 0h24v24H0z"/><path data-name="_Compound_Path_" class="cls-2" d="M20.46 5.5l-1.25-1.27a.52.52 0 0 0-.37-.16.53.53 0 0 0-.37.16l-7.29 7.4a.53.53 0 0 0-.11.18l-.81 2.08a.52.52 0 0 0 .68.68l2.06-.82a.55.55 0 0 0 .18-.12l7.3-7.4a.53.53 0 0 0-.02-.73zm-8 7.32l-.84.33.33-.86 6.85-6.95.52.52zm5.33-.62v7a.72.72 0 0 1-.73.7H7.2a.7.7 0 0 1-.7-.7V6a.67.67 0 0 1 .7-.67h7.24a.7.7 0 0 1 0 1.39H7.89v11.81h8.54v-6.34a.7.7 0 1 1 1.39 0z" fill="#08a9ae"/></symbol></defs><use width="24" height="24" xlink:href="#W" data-name="Layer 2"/></svg><svg height="24" viewBox="0 0 24 24" width="24" x="301" y="171"><defs><symbol id="X" data-name="edit_button" viewBox="0 0 24 24"><path class="cls-1" fill="none" d="M0 0h24v24H0z"/><path data-name="_Compound_Path_" class="cls-2" d="M18.9 4.5l-1.25-1.27a.52.52 0 0 0-.37-.16.53.53 0 0 0-.37.16l-7.29 7.4a.53.53 0 0 0-.11.18l-.81 2.08a.52.52 0 0 0 .68.68l2.06-.82a.55.55 0 0 0 .18-.12l7.3-7.4a.53.53 0 0 0-.02-.73zm-8 7.32l-.84.33.33-.86 6.85-6.95.52.52zm5.33-.62v7a.72.72 0 0 1-.73.7H5.64a.7.7 0 0 1-.7-.7V5a.67.67 0 0 1 .7-.67h7.24a.7.7 0 0 1 0 1.39H6.34v11.81h8.54v-6.34a.7.7 0 1 1 1.39 0z" fill="#fff"/></symbol></defs><use width="24" height="24" xlink:href="#X" data-name="Layer 2"/></svg><svg height="24" viewBox="0 0 24 24" width="24" x="301" y="210"><defs><symbol id="Y" data-name="edit_button_light" viewBox="0 0 24 24"><path class="cls-1" fill="none" d="M0 0h24v24H0z"/><path data-name="_Compound_Path_" class="cls-2" d="M18.9 4.5l-1.25-1.27a.52.52 0 0 0-.37-.16.53.53 0 0 0-.37.16l-7.29 7.4a.53.53 0 0 0-.11.18l-.81 2.08a.52.52 0 0 0 .68.68l2.06-.82a.55.55 0 0 0 .18-.12l7.3-7.4a.53.53 0 0 0-.02-.73zm-8 7.32l-.84.33.33-.86 6.85-6.95.52.52zm5.33-.62v7a.72.72 0 0 1-.73.7H5.64a.7.7 0 0 1-.7-.7V5a.67.67 0 0 1 .7-.67h7.24a.7.7 0 0 1 0 1.39H6.34v11.81h8.54v-6.34a.7.7 0 1 1 1.39 0z" fill="#8ba5a6"/></symbol></defs><use width="24" height="24" xlink:href="#Y" data-name="Layer 2"/></svg><svg height="24" viewBox="0 0 24 24" width="24" x="15" y="282"><defs><symbol id="Z" data-name="move" viewBox="0 0 24 24"><path class="cls-1" fill="none" d="M0 0h24v24H0z"/><path data-name="_Compound_Path_" class="cls-2" d="M15.86 9.21c-.73 0-2.56 1.82-3.9 3.11-2 2-3.94 3.86-5.47 3.86h-.93a.7.7 0 0 1 0-1.39h.94c1 0 2.93-1.95 4.5-3.47 1.91-1.85 3.57-3.5 4.87-3.5h.9l-1-.92a.67.67 0 0 1 0-1 .7.7 0 0 1 1 0l2.15 2.14a.7.7 0 0 1 0 1l-2.13 2.16a.69.69 0 0 1-.49.2.7.7 0 0 1-.49-.21.71.71 0 0 1 0-1l1-1zm.93 3.58a.7.7 0 0 0-1 0 .73.73 0 0 0 0 1l1 1h-.9c-.57 0-1.53-.85-2.48-1.73a.7.7 0 0 0-1 0 .72.72 0 0 0 0 1c1.44 1.35 2.42 2.1 3.43 2.1h.9l-1 .92a.68.68 0 0 0 0 1 .69.69 0 0 0 .49.2.7.7 0 0 0 .49-.21l2.15-2.14a.7.7 0 0 0 0-1zM5.56 9.21h.94c.73 0 1.83.93 2.7 1.72a.71.71 0 0 0 .47.2.68.68 0 0 0 .52-.22.72.72 0 0 0 0-1C8.77 8.66 7.63 7.82 6.5 7.82h-.94a.7.7 0 0 0 0 1.39z" fill="#8ba5a6"/></symbol></defs><use width="24" height="24" xlink:href="#Z" data-name="Layer 2"/></svg><svg height="24" viewBox="0 0 24 24" width="24" x="54" y="282"><defs><symbol id="aa" data-name="close" viewBox="0 0 24 24"><path class="cls-1" fill="none" d="M0 0h24v24H0z"/><path data-name="_Compound_Path_" class="cls-2" d="M16.3 15.19a.78.78 0 1 1-1.11 1.11L12 13.11 8.81 16.3a.78.78 0 0 1-1.11-1.11L10.89 12 7.7 8.81A.78.78 0 1 1 8.81 7.7L12 10.89l3.19-3.19a.78.78 0 0 1 1.11 1.11L13.11 12z" fill="#8ba5a6"/></symbol></defs><use width="24" height="24" xlink:href="#aa" data-name="Layer 2"/></svg><svg height="24" viewBox="0 0 24 24" width="24" x="93" y="282"><defs><symbol id="ab" data-name="plus_add" viewBox="0 0 24 24"><path data-name="_Compound_Path_" class="cls-1" d="M17.3 11.21a.78.78 0 1 1 0 1.57h-4.51v4.52a.78.78 0 0 1-1.57 0v-4.52H6.71a.78.78 0 1 1 0-1.57h4.51V6.7a.78.78 0 0 1 1.57 0v4.51z" fill="#fff"/><path class="cls-2" fill="none" d="M0 0h24v24H0z"/></symbol></defs><use width="24" height="24" xlink:href="#ab" data-name="Layer 2"/></svg><svg height="24" viewBox="0 0 24 24" width="24" x="132" y="282"><defs><symbol id="ac" data-name="plus_button_active" viewBox="0 0 24 24"><path class="cls-1" fill="none" d="M0 0h24v24H0z"/><path data-name="_Compound_Path_" class="cls-2" d="M17.3 11.21a.78.78 0 1 1 0 1.57h-4.52v4.52a.78.78 0 1 1-1.57 0v-4.52H6.7a.78.78 0 1 1 0-1.57h4.51V6.7a.78.78 0 0 1 1.57 0v4.51z" fill="#406464"/></symbol></defs><use width="24" height="24" xlink:href="#ac" data-name="Layer 2"/></svg><svg height="24" viewBox="0 0 24 24" width="24" x="171" y="282"><defs><symbol id="ad" data-name="plus_active" viewBox="0 0 24 24"><path class="cls-1" fill="none" d="M0 0h24v24H0z"/><path data-name="_Compound_Path_" class="cls-2" d="M17.3 11.21a.78.78 0 1 1 0 1.57h-4.52v4.52a.78.78 0 1 1-1.57 0v-4.52H6.7a.78.78 0 1 1 0-1.57h4.51V6.7a.78.78 0 0 1 1.57 0v4.51z" fill="#08a9ae"/></symbol></defs><use width="24" height="24" xlink:href="#ad" data-name="Layer 2"/></svg><svg height="24" viewBox="0 0 24 24" width="24" x="210" y="282"><defs><symbol id="ae" data-name="plus" viewBox="0 0 24 24"><path class="cls-1" fill="none" d="M0 0h24v24H0z"/><path data-name="_Compound_Path_" class="cls-2" d="M17.3 11.21a.78.78 0 1 1 0 1.57h-4.52v4.52a.78.78 0 1 1-1.57 0v-4.52H6.7a.78.78 0 1 1 0-1.57h4.51V6.7a.78.78 0 0 1 1.57 0v4.51z" fill="#8ba5a6"/></symbol></defs><use width="24" height="24" xlink:href="#ae" data-name="Layer 2"/></svg><svg height="24" viewBox="0 0 24 24" width="24" x="249" y="282"><defs><symbol id="af" data-name="radio_regular" viewBox="0 0 24 24"><path class="cls-1" fill="none" d="M0 0h24v24H0z"/><path class="cls-2" d="M12 4.93A7.07 7.07 0 1 1 4.93 12 7.07 7.07 0 0 1 12 4.93m0-1A8.07 8.07 0 1 0 20.07 12 8.08 8.08 0 0 0 12 3.93z" fill="#ccc"/></symbol></defs><use width="24" height="24" xlink:href="#af" data-name="Layer 2"/></svg><svg height="24" viewBox="0 0 24 24" width="24" x="288" y="282"><defs><symbol id="ag" data-name="radio_select" viewBox="0 0 24 24"><path class="cls-1" fill="none" d="M0 0h24v24H0z"/><circle class="cls-2" cx="12" cy="12" r="4.24" fill="#08a9ae"/><path class="cls-3" d="M12 4.93A7.07 7.07 0 1 1 4.93 12 7.07 7.07 0 0 1 12 4.93m0-1A8.07 8.07 0 1 0 20.07 12 8.08 8.08 0 0 0 12 3.93z" fill="#ccc"/></symbol></defs><use width="24" height="24" xlink:href="#ag" data-name="Layer 2"/></svg><svg height="24" viewBox="0 0 24 24" width="24" x="340" y="15"><defs><symbol id="ah" data-name="recover_category" viewBox="0 0 24 24"><path class="cls-1" fill="none" d="M0 0h24v24H0z"/><path data-name="_Compound_Path_" class="cls-2" d="M17.64 10.45l-.53 10.07a.7.7 0 0 1-.7.66H7.58a.7.7 0 0 1-.7-.66l-.52-10.07a.7.7 0 0 1 1.39-.07l.5 9.41h7.51l.5-9.41a.7.7 0 0 1 1.39.07zm.88-6.72a.7.7 0 0 1-.42.89L5.34 9.29A.7.7 0 1 1 4.86 8l3.6-1.31-.53-1.5a.5.5 0 0 1 .35-.68l4.51-1.65a.5.5 0 0 1 .71.3l.5 1.47 3.6-1.31a.7.7 0 0 1 .92.42zM9.61 6.25l3.27-1.19-.3-.82-3.27 1.19zm.94 12.5a.64.64 0 0 0 .6-.66L11 10.55a.61.61 0 0 0-.62-.6.61.61 0 0 0-.6.62l.18 7.55a.64.64 0 0 0 .59.63zm2.87 0a.63.63 0 0 0 .61-.61l.18-7.52a.61.61 0 0 0-.6-.63.6.6 0 0 0-.62.59l-.18 7.53a.62.62 0 0 0 .6.64z" fill="#f99"/><path class="cls-2" d="M20.82 6.54L19 5.4a.59.59 0 0 0-.62 1l.6.37L15.43 8a.59.59 0 0 0 .19 1.14.57.57 0 0 0 .19 0l3.54-1.22-.35.52a.59.59 0 0 0 .22.8.57.57 0 0 0 .29.08.59.59 0 0 0 .51-.3l1-1.69a.59.59 0 0 0-.2-.79z" fill="#f99"/></symbol></defs><g data-name="Layer 2"><use data-name="recover_category" width="24" height="24" xlink:href="#ah"/></g></svg><svg height="24" viewBox="0 0 24 24" width="24" x="340" y="54"><defs><symbol id="ai" data-name="recover_table" viewBox="0 0 24 24"><path class="cls-1" fill="none" d="M0 0h24v24H0z"/><path data-name="_Compound_Path_" class="cls-2" d="M17.64 10.45l-.53 10.07a.7.7 0 0 1-.7.66H7.58a.7.7 0 0 1-.7-.66l-.52-10.07a.7.7 0 0 1 1.39-.07l.5 9.41h7.51l.5-9.41a.7.7 0 0 1 1.39.07zm.88-6.72a.7.7 0 0 1-.42.89L5.34 9.29A.7.7 0 0 1 4.86 8l3.6-1.31-.53-1.5a.5.5 0 0 1 .35-.68l4.51-1.65a.5.5 0 0 1 .71.3l.5 1.47 3.6-1.31a.7.7 0 0 1 .92.42zM9.61 6.25l3.27-1.19-.3-.82-3.27 1.19zm.94 12.5a.64.64 0 0 0 .6-.66L11 10.55a.61.61 0 0 0-.62-.6.61.61 0 0 0-.6.62l.18 7.55a.64.64 0 0 0 .59.63zm2.87 0a.63.63 0 0 0 .61-.61l.18-7.52a.61.61 0 0 0-.6-.63.6.6 0 0 0-.62.59l-.18 7.53a.62.62 0 0 0 .6.64z" fill="#b7c4c7"/><path class="cls-2" d="M20.82 6.54L19 5.4a.59.59 0 0 0-.62 1l.6.37L15.43 8a.59.59 0 0 0 .19 1.14.57.57 0 0 0 .19 0l3.54-1.22-.35.52a.59.59 0 0 0 .22.8.57.57 0 0 0 .29.08.59.59 0 0 0 .51-.3l1-1.69a.59.59 0 0 0-.2-.79z" fill="#b7c4c7"/></symbol></defs><use width="24" height="24" xlink:href="#ai" data-name="Layer 2"/></svg><svg height="24" viewBox="0 0 24 24" width="24" x="340" y="93"><defs><symbol id="aj" data-name="recover" viewBox="0 0 24 24"><path class="cls-1" fill="none" d="M0 0h24v24H0z"/><path data-name="_Compound_Path_" class="cls-2" d="M17.64 10.45l-.53 10.07a.7.7 0 0 1-.7.66H7.58a.7.7 0 0 1-.7-.66l-.52-10.07a.7.7 0 0 1 1.39-.07l.5 9.41h7.51l.5-9.41a.7.7 0 0 1 1.39.07zm.88-6.72a.7.7 0 0 1-.42.89L5.34 9.29A.7.7 0 0 1 4.86 8l3.6-1.31-.53-1.5a.5.5 0 0 1 .35-.68l4.51-1.65a.5.5 0 0 1 .71.3l.5 1.47 3.6-1.31a.7.7 0 0 1 .92.42zM9.61 6.25l3.27-1.19-.3-.82-3.27 1.19zm.94 12.5a.64.64 0 0 0 .6-.66L11 10.55a.61.61 0 0 0-.62-.6.61.61 0 0 0-.6.62l.18 7.55a.64.64 0 0 0 .59.63zm2.87 0a.63.63 0 0 0 .61-.61l.18-7.52a.61.61 0 0 0-.6-.63.6.6 0 0 0-.62.59l-.18 7.53a.62.62 0 0 0 .6.64z" fill="#fff"/><path class="cls-2" d="M20.82 6.54L19 5.4a.59.59 0 0 0-.62 1l.6.37L15.43 8a.59.59 0 0 0 .19 1.14.57.57 0 0 0 .19 0l3.54-1.22-.35.52a.59.59 0 0 0 .22.8.57.57 0 0 0 .29.08.59.59 0 0 0 .51-.3l1-1.69a.59.59 0 0 0-.2-.79z" fill="#fff"/></symbol></defs><use width="24" height="24" xlink:href="#aj" data-name="Layer 2"/></svg><svg height="24" viewBox="0 0 24 24" width="24" x="340" y="132"><defs><symbol id="ak" data-name="search_active" viewBox="0 0 24 24"><path class="cls-1" d="M15.5 14h-.79l-.28-.27a6.52 6.52 0 1 0-.71.71l.28.27v.79l5 5 1.49-1.5zm-6 0A4.5 4.5 0 1 1 14 9.5 4.5 4.5 0 0 1 9.5 14z" fill="#08a9ae"/><path class="cls-2" fill="none" d="M0 0h24v24H0z"/></symbol></defs><use width="24" height="24" xlink:href="#ak" data-name="Layer 2"/></svg><svg height="24" viewBox="0 0 24 24" width="24" x="340" y="171"><defs><symbol id="al" data-name="search" viewBox="0 0 24 24"><path class="cls-1" d="M15.5 14h-.79l-.28-.27a6.52 6.52 0 1 0-.71.71l.28.27v.79l5 5 1.49-1.5zm-6 0A4.5 4.5 0 1 1 14 9.5 4.5 4.5 0 0 1 9.5 14z" fill="#b7c4c7"/><path class="cls-2" fill="none" d="M0 0h24v24H0z"/></symbol></defs><use width="24" height="24" xlink:href="#al" data-name="Layer 2"/></svg><svg height="24" viewBox="0 0 24 24" width="24" x="340" y="210"><defs><symbol id="am" data-name="stock" viewBox="0 0 24 24"><path class="cls-1" fill="none" d="M0 0h24v24H0z"/><path class="cls-2" d="M11.55 12H8.49a.7.7 0 1 0 0 1.39h3.05a.7.7 0 0 0 0-1.39zm4-5h-3.06a.7.7 0 1 0 0 1.39h3.05a.7.7 0 1 0 0-1.39z" fill="#8ba5a6"/><path class="cls-2" d="M19.72 5.06a.7.7 0 0 0-.7-.7H9a.7.7 0 0 0-.7.69v4.31H5a.7.7 0 0 0-.7.69l-.1 8.88a.7.7 0 0 0 .7.71h10.19a.7.7 0 0 0 .7-.7v-4.3h3.33a.7.7 0 0 0 .7-.7zM10 18.24H5.62l.08-7.49h8.63l.05 7.49zm5.72-5v-3.19a.7.7 0 0 0-.7-.7H9.66V5.74h8.63l.05 7.49z" fill="#8ba5a6"/></symbol></defs><g data-name="Layer 2"><use data-name="stock" width="24" height="24" xlink:href="#am"/></g></svg><svg height="16" viewBox="0 0 16 16" width="16" x="340" y="249"><defs><symbol id="an" data-name="table_options_hover" viewBox="0 0 16 16"><g id="ao"><rect class="cls-1" width="16" height="16" rx="4" ry="4" fill="#c3e0e5"/><path data-name="_Compound_Path_" class="cls-2" d="M12.3 7.22a.78.78 0 0 1 0 1.57H8.78v3.51a.78.78 0 1 1-1.57 0V8.78H3.7a.78.78 0 1 1 0-1.57h3.52V3.7a.78.78 0 0 1 1.57 0v3.52z" fill="#8ba5a6"/></g></symbol></defs><g data-name="Layer 2"><use data-name="table_options_hover" width="16" height="16" xlink:href="#an"/></g></svg><svg height="16" viewBox="0 0 16 16" width="16" x="340" y="280"><g data-name="Layer 2"><use data-name="table_options" width="16" height="16" xlink:href="#ao"/></g></svg></svg>