<?xml version="1.0" encoding="utf-8"?>
<!-- Generator: Adobe Illustrator 21.0.0, SVG Export Plug-In . SVG Version: 6.00 Build 0)  -->
<svg version="1.1" id="Слой_1" xmlns="http://www.w3.org/2000/svg" xmlns:xlink="http://www.w3.org/1999/xlink" x="0px" y="0px"
	 viewBox="0 0 36 36" style="enable-background:new 0 0 36 36;" xml:space="preserve">
<style type="text/css">
	.st0{fill:#66CCCC;}
</style>
<path class="st0" d="M23.6,22c0.6-0.6-0.3-1.5-0.9-0.9c-0.8,0.8-3.5,3.7-4.9,2.3c-0.4-0.4-0.6-1.2-0.6-1.8c0-0.8-1.3-0.8-1.3,0
	c0,1,0.4,2.2,1.2,2.9C19.2,26.2,22.1,23.3,23.6,22z M29.5,22.9c-3.9-0.5-7,1.6-7.6,5.2c-2.2,0.2-3.9,1.3-4.7,3.3
	c-0.3,0.8,1,1,1.2,0.3c0.6-1.6,2.3-2.3,3.9-2.4c0.3,0,0.6-0.2,0.6-0.5c0.3-3.2,2.8-5.2,6.2-4.7C30,24.2,30.3,23,29.5,22.9z
	 M9.3,20.9c-1.7,0-4.1,1-4.2,1.5c-0.3,1.2,1.9,7.2,5,9.9c0.1,0.1,0.1,0.2,0.4,0.3s2.7,0.2,3.1,0.1c0.4-0.1,2.6-3,2.6-5.1
	C16.3,23.8,13.2,20.9,9.3,20.9z M11.6,25.9c0.3-0.1,0.6-0.1,0.7,0.1s-0.1,0.5-0.4,0.6c-0.3,0.1-1.3,0.1-1.3,0.1S11.3,26,11.6,25.9z
	 M6.8,25c-0.2-0.3-0.1-0.6,0.1-0.7c0.2-0.1,0.5,0,0.7,0.3c0.2,0.3,0.2,1.3,0.2,1.3S7,25.3,6.8,25z M9.6,28.2l-0.5,0.4
	c-0.3,0.2-0.7,0.1-0.9-0.2l-0.3-0.5c-0.2-0.3-0.1-0.7,0.2-0.9l0.5-0.3c0.3-0.2,0.7-0.1,0.9,0.2l0.3,0.5C10.1,27.6,9.9,28,9.6,28.2z
	 M10.1,24.6c-0.1,0.3-0.6,1.1-0.6,1.1s-0.3-1-0.2-1.3s0.3-0.6,0.5-0.5S10.2,24.3,10.1,24.6z M11.1,30.9c-0.2,0.1-0.5,0-0.7-0.3
	c-0.1-0.4-0.2-1.3-0.2-1.3s0.8,0.6,1,0.9C11.4,30.4,11.3,30.7,11.1,30.9z M12.8,28.8c-0.1,0.2-0.4,0.3-0.7,0.1
	c-0.3-0.2-0.9-0.9-0.9-0.9s1,0,1.3,0.2C12.8,28.3,12.9,28.6,12.8,28.8z M34.4,16.8c-0.9,0-1.8,0-2.7,0c0.4-0.7,0.6-1.4,0.6-2.3
	c0-2.8-2.4-5.1-5.3-5.1c-0.1,0-0.3,0-0.4,0c-0.3-0.5-0.6-0.9-1-1.3c0.7-0.5,1.4-0.9,2.2-1.4c1-0.6,0.3-2-0.6-1.9
	c0.6-1.1-0.9-2-1.7-1.2c-0.3-0.8-1.7-0.9-2,0.1c-0.2,1-0.5,2-0.7,3c-0.7-0.2-1.3-0.2-1.9-0.2c-2.3,0.2-4.5,7-5.4,10.1
	c-4.8,0-9.5,0-14.2,0c-2,0-2,3,0,3h0.1c-0.4,5.8,1.8,11.1,6.4,15c1.2,1.1,2.9,1.3,4.7,1.4c1.7,0,7.5,0,9.1,0
	c2.2,0.1,4.2-0.1,5.8-1.2c5-3.5,7-9.5,6.6-15.2c0.1,0,0.2,0,0.3,0C36.5,19.8,36.5,16.8,34.4,16.8z M27.1,11.1c2,0,3.6,1.6,3.6,3.5
	c0,0.9-0.3,1.7-0.9,2.3c-1.8,0-3.6,0-5.4,0c-0.5-0.6-0.9-1.4-0.9-2.3C23.5,12.6,25.1,11.1,27.1,11.1z M21.1,8c0.9-0.1,3,0.3,4.1,1.8
	c-2,0.7-3.5,2.6-3.5,4.7c0,0.8,0.2,1.6,0.6,2.3c-1.8,0-3.6,0-5.4,0c0.2-0.7,0.4-1.5,0.7-2.2c0.4,0.2,0.9,0.4,1.3,0.6
	c0.7,0.3,1.4-0.7,0.6-1.1c-0.5-0.2-1-0.5-1.6-0.7c0.2-0.5,0.4-1,0.6-1.5c0.4,0.2,0.8,0.4,1.3,0.6c0.7,0.3,1.4-0.7,0.6-1.1
	c-0.5-0.2-0.9-0.4-1.4-0.6C20,9.1,20.7,8.1,21.1,8z M31.1,25.4c-0.4,1.6-3.3,8.1-5.5,8.1c-2.4,0-4.9,0-7.2,0c-2.7,0-5.4,0-8.1,0
	c-1.7,0-4.2-4.5-4.9-5.6c-1.3-2.5-1.7-5.3-1.3-8c9.2,0,18.3,0,27.5,0C31.7,21.7,31.6,23.5,31.1,25.4z M28.6,13.9
	c0.1,0.1,0.3,0,0.4-0.1s0.3-0.6,0.3-0.6s-0.5,0.2-0.6,0.3C28.6,13.7,28.6,13.8,28.6,13.9z M28,13.4c0.1,0.1,0.3,0,0.4-0.1
	s0.3-0.6,0.3-0.6s-0.5,0.2-0.6,0.3C27.9,13.2,27.9,13.3,28,13.4z M27.9,12.9c0.1-0.1,0.3-0.6,0.3-0.6s-0.5,0.2-0.6,0.3
	s-0.1,0.3-0.1,0.4S27.7,13,27.9,12.9z M26,13.5c0-0.1-0.1-0.3-0.2-0.3c-0.2-0.1-0.7,0-0.7,0s0.4,0.4,0.5,0.4
	C25.8,13.6,26,13.6,26,13.5z M25.8,14.1c0-0.1-0.1-0.3-0.2-0.3c-0.2-0.1-0.7,0-0.7,0s0.4,0.4,0.5,0.4C25.5,14.3,25.7,14.3,25.8,14.1
	z M25.2,14.5c-0.2-0.1-0.7,0-0.7,0s0.4,0.4,0.5,0.4c0.2,0.1,0.3,0,0.4-0.1C25.6,14.7,25.5,14.6,25.2,14.5z M26.8,15.8
	c0-0.2-0.2-0.3-0.3-0.3c-0.1,0-0.2,0.2-0.1,0.4c0,0.2,0.4,0.6,0.4,0.6S26.9,16,26.8,15.8z M27.5,15.7c0-0.2-0.2-0.3-0.3-0.3
	c-0.1,0-0.2,0.2-0.1,0.4c0,0.2,0.4,0.6,0.4,0.6S27.6,15.8,27.5,15.7z M27.9,15.2c-0.1,0-0.2,0.2-0.1,0.4c0,0.2,0.4,0.6,0.4,0.6
	s0.1-0.5,0.1-0.7C28.2,15.3,28.1,15.2,27.9,15.2z"/>
</svg>
