<?xml version="1.0" encoding="utf-8"?>
<!-- Generator: Adobe Illustrator 21.0.2, SVG Export Plug-In . SVG Version: 6.00 Build 0)  -->
<svg version="1.1" id="Слой_1" xmlns="http://www.w3.org/2000/svg" xmlns:xlink="http://www.w3.org/1999/xlink" x="0px" y="0px"
	 viewBox="0 0 36 36" style="enable-background:new 0 0 36 36;" xml:space="preserve">
<style type="text/css">
	.st0{fill:#4169E1;}
</style>
<path class="st0" d="M19.4,1.9c-1.6,0-2.9,0.5-2.9,1.1s1.3,1,2.9,1s2.9-0.5,2.9-1.1S21,1.9,19.4,1.9z M20.4,7.3h-0.6
	c-0.1,0-0.4,0.1-0.4,0.2c-0.1,0.4-0.1,0.9-0.1,1.3c0.1,0.4,0.4,0.3,0.7,0.3c5.3,0.1,10.7,0.3,16,0.4V6.9h-0.6
	C30.3,7,25.4,7.1,20.4,7.3z M25.6,4h-0.1V2.3C25.4,1,22.7,0,19.5,0s-5.9,1-6,2.3V9c0.1,0.7,0.9,1.3,2.1,1.7L15.3,18
	c-3.2,0.5-6.7,1.6-7.9,3.9c-0.4,0.4-0.6,2.6-0.3,3.4c0.8,3.4,2.9,6.4,5.9,8.2h-0.1c-1.5,0-1.5,2.6,0,2.6H26c1.5,0,1.5-2.6,0-2.6
	h-0.1c2.9-1.8,5-4.6,5.8-7.9c0.3-1.3,0.2-2.6-0.2-3.8c-1.3-2.3-4.7-3.4-8-3.8l-0.2-7.2c0.6-0.2,1.2-0.5,1.6-0.9
	c-1.7,0-3.4-0.1-5.1-0.1h-0.1c-0.5,0.1-1.1-0.2-1.2-0.8V8.9c0-0.5,0-1,0.1-1.4c0.1-0.5,0.7-0.7,1-0.7h0.6c1.7-0.1,3.4-0.1,5.1-0.2
	V5.8c3.5-0.1,7-0.2,10.5-0.3V3.1C32.5,3.4,29.1,3.6,25.6,4z M17.4,11.2c0.4,0.1,0.8,0.1,1.2,0.1l-0.2,6.4c-0.3,0-0.5,0-0.8,0
	L17.4,11.2z M20.7,21v-1.1c0.2,0,0.4,0,0.6,0V21C21,21,20.8,21,20.7,21z M17.6,21v-1.1c0.2,0,0.5,0,0.7,0V21C18,21,17.8,21,17.6,21
	L17.6,21z M9.2,22.6L9.2,22.6c0.8-1.4,3.5-2,5.9-2.3v0.9v0.1c-2.9,0.4-5,1.2-5.1,2C9.7,23.1,9.5,22.9,9.2,22.6L9.2,22.6z M19.5,33.1
	C15,33,11.1,30,9.7,25.8c2.9,1.3,6.7,1.2,9.7,1.2c3.1,0,6.8,0,9.7-1.3C27.9,30,24,33,19.5,33.1z M29.1,22.4c0.1,0.1,0.2,0.2,0.2,0.3
	c0.1,0.2-0.2,0.5-0.5,0.6c-0.2,0.1-0.4,0.2-0.6,0.3v-0.2c0-0.9-1.9-1.7-4.7-2.1c0-0.1,0-0.1,0-0.2v-0.9
	C25.6,20.4,27.5,21.2,29.1,22.4L29.1,22.4z M21.3,17.7c-0.2,0-0.5,0-0.7,0l-0.2-6.4c0.4,0,0.7-0.1,1.1-0.1L21.3,17.7z M19.4,4.8
	c-2.7,0-4.9-0.8-4.9-1.9S16.7,1,19.4,1s4.9,0.8,4.9,1.9S22.1,4.8,19.4,4.8z"/>
</svg>
