<svg id="Слой_1" data-name="Слой 1" xmlns="http://www.w3.org/2000/svg" viewBox="0 0 36 36">
  <defs>
    <style>
      .cls-1 {
        fill: #f3c870;
      }
    </style>
  </defs>
  <title>12 Тонкое тесто</title>
  <path class="cls-1" d="M27.24185,1.74857a23.83949,23.83949,0,0,1,8.1457,5.34857A1.5323,1.5323,0,0,1,35.59378,9.36c-.41244.61714-.928,1.33714-1.34043,1.95429a3.63741,3.63741,0,0,1-1.75287,1.54286,2.40613,2.40613,0,0,0-.72177.72c-2.16531,3.6-4.22752,7.09714-6.39283,10.69714-2.16531,3.70286-4.43374,7.40572-6.59905,11.10857-.51555.82286-1.13421.82286-1.64976,0-2.57775-4.32-5.0524-8.53714-7.63015-12.85714C7.754,19.44,5.898,16.45714,4.14517,13.47428a1.20179,1.20179,0,0,0-.61866-.61714,5.64568,5.64568,0,0,1-1.856-1.64571C1.25809,10.59429.74254,9.87429.3301,9.25714a1.58055,1.58055,0,0,1,.20622-2.16c.51555-.51429,1.13421-1.02857,1.75287-1.54286C6.92915,1.85143,12.18777,0,16.6215,0A27.50932,27.50932,0,0,1,27.24185,1.74857Zm3.09331,11.62286c-.10311,0-.10311-.10286-.20622-.10286A11.25753,11.25753,0,0,1,25.489,10.8a11.02846,11.02846,0,0,1-1.64976-1.44.93714.93714,0,0,0-.72177-.30857,13.126,13.126,0,0,1-4.74307-1.02857.46119.46119,0,0,0-.51555,0,12.16658,12.16658,0,0,1-4.64,1.02857,1.53736,1.53736,0,0,0-.928.41143L9.19757,11.93143a9.06739,9.06739,0,0,1-3.40264,1.33714C9.91934,20.16,13.94064,26.94857,18.065,33.84,22.18945,26.84572,26.21075,20.16,30.33516,13.37143ZM4.24828,9.56572A1.3337,1.3337,0,0,0,5.898,10.08a5.2388,5.2388,0,0,0,1.856-.92571c1.0311-.82286,1.95909-1.64571,2.88708-2.46857a2.82046,2.82046,0,0,1,1.95909-.82286,12.24745,12.24745,0,0,0,3.29953-.51429,3.488,3.488,0,0,0,1.23732-.61714,1.54776,1.54776,0,0,1,1.856,0A4.59294,4.59294,0,0,0,21.6739,5.76a18.56264,18.56264,0,0,0,2.26842.20571,2.0382,2.0382,0,0,1,1.44354.61714c1.0311.92571,1.95909,1.74857,2.99019,2.57143a5.73665,5.73665,0,0,0,1.75287.92571,1.38891,1.38891,0,0,0,1.856-.61714l.61866-.92571c-7.73326-7.30286-21.03448-7.50857-29.07707,0A8.89676,8.89676,0,0,0,4.24828,9.56572Zm11.1359,9.66857a1.477,1.477,0,0,1,1.34043-1.54286h1.54665A1.65028,1.65028,0,0,1,19.921,19.44v.61714a3.47717,3.47717,0,0,1,1.23732.61714,3.18832,3.18832,0,0,1,.928,1.85143A3.3928,3.3928,0,0,1,20.12725,25.92a5.25292,5.25292,0,0,1-4.64.20572,3.33621,3.33621,0,0,1-2.0622-1.85143,3.04254,3.04254,0,0,1,0-2.67429,2.39141,2.39141,0,0,1,1.95909-1.44Zm-.51555,4.73143a4.75761,4.75761,0,0,0,.72177.72,3.783,3.783,0,0,0,4.0213,0,2.21261,2.21261,0,0,0,.928-1.23429,1.31682,1.31682,0,0,0-.51555-1.54286v.61714a.99568.99568,0,0,1-1.34043.82286.77052.77052,0,0,1-.51555-.82286c.10311-.51429.10311-1.13143.20622-1.74857a2.841,2.841,0,0,0,.10311-.92571c0-.20572.10311-.30857,0-.41143-.30933-.51429-.72177-.30857-1.13421-.30857-.30933,0-.41244.20572-.41244.51429.10311.61714.10311,1.23429.20622,1.85143,0,.30857.10311.51429.10311.82286a.935.935,0,0,1-.82488,1.02857.96576.96576,0,0,1-1.13421-.82286v-.72A1.70464,1.70464,0,0,0,14.86863,23.96572ZM18.16816,11.52a1.97079,1.97079,0,0,1,1.64976.61714.65964.65964,0,0,1,.10311.92571.99082.99082,0,0,1-.928.20571c-.20622-.10286-.30933-.20571-.41244-.20571-.41244-.10286-.82488,0-.928.30857a2.32684,2.32684,0,0,1-2.0622,1.64571l-1.856.61714a1.48339,1.48339,0,0,0-.928,1.13143c0,.10286-.10311.20572-.10311.30857A1.468,1.468,0,0,1,11.36289,18a1.331,1.331,0,0,1-1.34043-.92571,3.43571,3.43571,0,0,1,.41244-3.29143,8.08976,8.08976,0,0,1,4.33063-3.29143,2.1077,2.1077,0,0,1,2.37153.72c.10311.20571.30933.30857.41244.51429A.87312.87312,0,0,0,18.16816,11.52Zm-4.64,2.77714a9.08925,9.08925,0,0,1,1.54665-.51429,6.58376,6.58376,0,0,0,.72177-.20571.86389.86389,0,0,0,.41244-1.13143.84531.84531,0,0,0-1.0311-.41143,7.69936,7.69936,0,0,0-3.40264,2.57143,2.08,2.08,0,0,0-.41244,1.54286A3.028,3.028,0,0,1,13.5282,14.29714Zm9.79547-.72A2.98287,2.98287,0,1,1,20.33347,16.56,2.86489,2.86489,0,0,1,23.32366,13.57714Zm-1.54665,2.88a1.496,1.496,0,1,0,1.54665-1.44A1.56559,1.56559,0,0,0,21.777,16.45714Z"/>
</svg>
