<svg id="Слой_1" data-name="Слой 1" xmlns="http://www.w3.org/2000/svg" viewBox="0 0 36 36">
  <defs>
    <style>
      .cls-1 {
        fill: #f3c870;
      }
    </style>
  </defs>
  <title>13 Толстое тесто</title>
  <path class="cls-1" d="M27.32351,1.74857a23.722,23.722,0,0,1,8.10874,5.34857A1.62408,1.62408,0,0,1,35.63753,9.36c-.41057.61714-.92378,1.33714-1.33435,1.95429a4.2372,4.2372,0,0,1-1.74492,1.54286,1.61878,1.61878,0,0,0-.7185.72c-2.15549,3.6-4.20833,7.09714-6.36382,10.69714-2.15549,3.70286-4.41362,7.40572-6.5691,11.10857-.51321.82286-1.12907.82286-1.64228,0-2.56606-4.32-5.02947-8.53714-7.59553-12.85714-1.84756-2.98286-3.69512-6.06857-5.44-9.05143-.20528-.30857-.30793-.51429-.61585-.61714a4.08064,4.08064,0,0,1-1.84756-1.64571C1.25238,10.59429.84181,9.97714.3286,9.25714A1.46921,1.46921,0,0,1,.53388,7.2c.51321-.51429,1.12906-1.02857,1.74492-1.54286A23.19908,23.19908,0,0,1,16.54607,0,29.159,29.159,0,0,1,27.32351,1.74857Zm2.77134,11.52a.31758.31758,0,0,0-.20529-.10286,10.11818,10.11818,0,0,1-4.6189-2.46857,20.5657,20.5657,0,0,1-1.64227-1.44.93091.93091,0,0,0-.7185-.30857A12.15592,12.15592,0,0,1,18.18835,7.92a.45737.45737,0,0,0-.51321,0,12.06508,12.06508,0,0,1-4.6189,1.02857,1.52715,1.52715,0,0,0-.92378.41143,35.9684,35.9684,0,0,1-3.07927,2.46857A7.13348,7.13348,0,0,1,5.666,13.16572c4.10569,6.89143,8.10874,13.68,12.21443,20.57143C22.08875,26.84572,26.0918,20.16,30.09485,13.26857ZM15.31436,19.33714a1.47479,1.47479,0,0,1,1.33435-1.54286,3.8796,3.8796,0,0,1,1.53963,0,1.71241,1.71241,0,0,1,1.64228,1.74857V20.16a3.45547,3.45547,0,0,1,1.23171.61714,3.19365,3.19365,0,0,1,.92378,1.85143,3.39529,3.39529,0,0,1-1.9502,3.39429,5.22244,5.22244,0,0,1-4.6189.20572,3.32634,3.32634,0,0,1-2.05284-1.85143,3.055,3.055,0,0,1,0-2.67429,2.13244,2.13244,0,0,1,1.9502-1.44ZM14.9038,23.76a2.40066,2.40066,0,0,0,.7185.72,3.75135,3.75135,0,0,0,4.003,0,2.80748,2.80748,0,0,0,.92378-1.23429,1.32,1.32,0,0,0-.51321-1.54286V22.32a1.02656,1.02656,0,0,1-1.33435.82286c-.41057-.10286-.51321-.41143-.51321-.82286.10264-.61714.10264-1.23429.20529-1.74857,0-.30857.10264-.61714.10264-.92571v-.41143c-.30793-.51429-.7185-.20572-1.12907-.30857-.30793,0-.51321.20572-.41057.51429a11.35656,11.35656,0,0,0,.20529,1.85143c0,.30857.10264.51429.10264.82286.10264.61714-.20529.92571-.82114,1.02857A1.23841,1.23841,0,0,1,15.31437,22.32V21.6C14.59587,22.32,14.39058,23.14286,14.9038,23.76Zm3.07927-12.03429a1.957,1.957,0,0,1,1.64228.61714.70315.70315,0,0,1-.82114,1.13143.53291.53291,0,0,0-.41057-.20571c-.41057-.10286-.82114,0-.92378.30857A2.57449,2.57449,0,0,1,15.417,15.22286a6.51473,6.51473,0,0,0-1.84756.61714,1.33736,1.33736,0,0,0-.92378,1.13143A.37836.37836,0,0,1,12.543,17.28a1.32519,1.32519,0,0,1-1.33435.92571A1.32519,1.32519,0,0,1,9.87433,17.28a3.74945,3.74945,0,0,1,.41057-3.29143,8.58807,8.58807,0,0,1,4.311-3.29143,2.09254,2.09254,0,0,1,2.36077.72c.10264.10286.20529.30857.41057.51429A.86646.86646,0,0,1,17.98306,11.72571Zm-4.51626,2.46857c.51321-.20571,1.02642-.30857,1.53963-.51429.20528-.10286.51321-.10286.7185-.20571a.83288.83288,0,0,0,.41057-1.13143.7213.7213,0,0,0-1.02642-.41143,7.66812,7.66812,0,0,0-3.38719,2.57143,1.97054,1.97054,0,0,0-.41057,1.54286A3.54527,3.54527,0,0,1,13.46681,14.19429Zm9.751-.72a2.98286,2.98286,0,0,1,0,5.96571,2.85937,2.85937,0,0,1-2.97662-2.98286A2.98189,2.98189,0,0,1,23.21782,13.47429Zm-1.53963,2.98286A1.49314,1.49314,0,0,0,23.11518,18a1.56539,1.56539,0,0,0,1.53963-1.44,1.49314,1.49314,0,0,0-1.437-1.54286A1.56138,1.56138,0,0,0,21.67818,16.45714Z" transform="translate(0)"/>
</svg>
