<?xml version="1.0" encoding="utf-8"?>
<!-- Generator: Adobe Illustrator 21.0.0, SVG Export Plug-In . SVG Version: 6.00 Build 0)  -->
<svg version="1.1" id="Слой_1" xmlns="http://www.w3.org/2000/svg" xmlns:xlink="http://www.w3.org/1999/xlink" x="0px" y="0px"
	 viewBox="0 0 36 36" style="enable-background:new 0 0 36 36;" xml:space="preserve">
<style type="text/css">
	.st0{fill:#4169E1;}
</style>
<path class="st0" d="M25.5,0c1.6,0.7,2,1.5,1.3,2.7c-0.4,0.6-0.8,1-1.1,1.6c-0.5,0.6-0.6,1.4-0.4,2.1C24,6.1,23.4,5,23.8,4
	c0.3-0.6,0.7-1.1,1-1.6C25.6,1.4,25.8,1,25.5,0z M21.8,0c1.6,0.7,2.1,1.5,1.4,2.6C23,3,22.6,3.4,22.3,3.9c-0.6,0.6-0.9,1.5-0.6,2.4
	c-1.5-0.6-2-1.4-1.4-2.5c0.3-0.6,0.7-1.1,1.1-1.6C22,1.6,22.1,0.7,21.8,0z M34.3,9.6h-0.5v-2c0-0.4-0.3-0.6-0.7-0.6H13.9
	c-0.3,0-0.6,0.2-0.7,0.6v2h-0.5c-1,0-1.9,0.7-1.9,1.8l0,0v0.1V14c0,0.8,0.6,1.6,1.4,1.7L15.4,33c0.1,0.4,0.5,0.7,0.9,0.7h0.6v1.6
	c0,0.3,0.2,0.8,1.3,0.8h10.5c1.1,0,1.3-0.5,1.3-0.8v-1.6h0.6c0.4,0,0.7-0.3,0.9-0.7l3.1-17.4c0.8-0.2,1.4-0.9,1.4-1.7v-2.5
	c0.1-0.9-0.5-1.7-1.4-1.8C34.5,9.6,34.4,9.6,34.3,9.6z M12.6,11.4c0-0.1,0.1-0.3,0.2-0.3h21.5c0.1,0,0.2,0.1,0.2,0.3v2.5
	c0,0.1-0.1,0.3-0.2,0.3s-4.5-0.1-6.5-0.1h-8.5c-2.1,0-6.4,0-6.5,0.1c-0.1,0-0.2-0.1-0.2-0.3L12.6,11.4L12.6,11.4z M29,34.9H18.2
	v-1.2H29V34.9z M30.3,30.2c-0.1,0.6-0.2,1.2-0.3,1.8H17.1c-0.1-0.5-0.2-0.9-0.3-1.3c-0.9-4.9-1.8-9.9-2.7-14.9h18.7
	C32.1,20.5,31.2,25.4,30.3,30.2z"/>
</svg>
