<?xml version="1.0" encoding="utf-8"?>
<!-- Generator: Adobe Illustrator 21.0.0, SVG Export Plug-In . SVG Version: 6.00 Build 0)  -->
<svg version="1.1" id="Слой_1" xmlns="http://www.w3.org/2000/svg" xmlns:xlink="http://www.w3.org/1999/xlink" x="0px" y="0px"
	 viewBox="0 0 36 36" style="enable-background:new 0 0 36 36;" xml:space="preserve">
<style type="text/css">
	.st0{fill:#4169E1;}
</style>
<title>15 холодные напитки</title>
<path class="st0" d="M34,8.1h-0.5V6.1c0-0.4-0.3-0.7-0.7-0.6H12.6c-0.4,0-0.7,0.3-0.7,0.6v2.1h-0.5c-1.1,0-1.9,0.8-2,1.9v2.6
	c0,0.9,0.6,1.6,1.5,1.8c1.1,6.1,2.2,12.2,3.3,18.3c0.1,0.4,0.5,0.7,0.9,0.7h0.6v1.7c0,0.3,0.2,0.8,1.4,0.8h11.1
	c1.2,0,1.4-0.5,1.4-0.8v-1.7h0.6c0.4,0,0.8-0.3,0.9-0.7c1.1-6.1,2.2-12.2,3.3-18.3c0.8-0.2,1.5-0.9,1.5-1.8V10C36,9,35.1,8.1,34,8.1
	z M32.2,6.7c0,0.1,0,0.3,0,0.7v0.8h-2.6l-1-1.4H32.2z M27.2,6.7l1,1.4H17.3l1-1.4C18.3,6.7,27.2,6.7,27.2,6.7z M13.3,7.4
	c0-0.3,0-0.5,0-0.7h3.6l-1,1.4h-2.6V7.4z M11.2,10c0-0.1,0.1-0.3,0.2-0.3H34c0.1,0,0.2,0.1,0.2,0.3v2.6c0,0.1-0.1,0.2-0.2,0.3
	c-0.1,0-4.7-0.1-6.8-0.1h-8.9c-2.2,0-6.7,0-6.8,0.1c-0.1,0-0.2-0.1-0.2-0.3V10z M28.4,34.7L28.4,34.7l-11.2,0l-0.1,0v-1.3l0.1,0
	h11.1l0.1,0L28.4,34.7L28.4,34.7z M29.8,29.8c-0.1,0.6-0.2,1.3-0.3,1.9H16c-0.1-0.5-0.2-0.9-0.3-1.4c-0.9-5.2-1.9-10.4-2.8-15.7
	h19.7C31.7,19.6,30.8,24.7,29.8,29.8z"/>
</svg>
