<?xml version="1.0" encoding="utf-8"?>
<!-- Generator: Adobe Illustrator 21.0.0, SVG Export Plug-In . SVG Version: 6.00 Build 0)  -->
<svg version="1.1" id="Слой_1" xmlns="http://www.w3.org/2000/svg" xmlns:xlink="http://www.w3.org/1999/xlink" x="0px" y="0px"
	 viewBox="0 0 36 36" style="enable-background:new 0 0 36 36;" xml:space="preserve">
<style type="text/css">
	.st0{fill:#4169E1;}
</style>
<path class="st0" d="M35.2,12h-0.8c-0.9-2.9-4-5.2-8-6c0.3-1.7,0.6-3.3,0.9-5c0.2-1-1.5-1.4-1.6-0.4c-0.3,1.7-0.6,3.5-0.9,5.2
	c-0.3,0-0.7,0-1.1,0c-5.2,0-9.6,2.7-10.7,6.2h-0.8c-0.4,0-0.8,0.3-0.8,0.8c0,0.4,0.4,0.8,0.8,0.8h0.6h1.5h9.2c0,0.3-0.1,0.5-0.1,0.8
	c-3.2,0-6.4,0-9.6,0c-0.6,0-0.9,0.5-0.8,1c0.3,2,0.7,4.1,1,6.1c0,0,1.6,10.1,2.2,14c0.1,0.3,0.5,0.6,0.8,0.6c4.4,0,8.9,0,13.4,0
	c0.3,0,0.8-0.2,0.8-0.6c0.7-4.2,1.4-8.3,2.1-12.5c0.1-0.8,0.3-1.6,0.4-2.3c-0.2-0.3-0.3-0.4,0,0c0.3-1.8,0.7-3.5,1-5.3
	c0-0.1,0-0.1,0-0.2c0,0,0-0.1,0-0.1c0,0,0,0,0-0.1c-0.1-0.3-0.3-0.6-0.8-0.6c-2.9,0-5.9,0-8.8,0c0-0.3,0.1-0.5,0.1-0.8h8.1h1.5h0.6
	c0.4,0,0.8-0.3,0.8-0.8C36,12.3,35.6,12,35.2,12z M22.5,18.4c-0.4-0.1-0.7-0.3-1.1-0.4c-2.4-0.6-4.3,0.6-6,2.1
	c-0.2-1.4-0.5-2.8-0.7-4.2c2.8,0,5.5,0,8.3,0C22.8,16.7,22.6,17.6,22.5,18.4z M14.5,12c1.1-2.8,4.8-4.8,9.2-4.8c0.3,0,0.5,0,0.8,0
	c-0.3,1.6-0.6,3.2-0.9,4.8H14.5z M32.7,15.9c-0.2,1.4-0.5,2.8-0.7,4.2c0,0-0.1,0-0.1,0c0,0-0.1,0-0.1,0c-2.3,0.9-4.1,1.2-6.3-0.1
	c-0.5-0.3-1-0.6-1.4-0.8c0.2-1.1,0.4-2.2,0.6-3.3C27.3,15.9,30,15.9,32.7,15.9z M25.3,12c0.3-1.5,0.5-3.1,0.8-4.6
	c3.2,0.6,5.8,2.4,6.7,4.6H25.3z"/>
</svg>
