<?xml version="1.0" encoding="utf-8"?>
<!-- Generator: Adobe Illustrator 21.0.0, SVG Export Plug-In . SVG Version: 6.00 Build 0)  -->
<svg version="1.1" id="Слой_1" xmlns="http://www.w3.org/2000/svg" xmlns:xlink="http://www.w3.org/1999/xlink" x="0px" y="0px"
	 viewBox="0 0 36 36" style="enable-background:new 0 0 36 36;" xml:space="preserve">
<style type="text/css">
	.st0{fill:#66CCCC;}
</style>
<path class="st0" d="M13.8,14.8c1.3,0,2.4,1,2.4,2.4c0,1.4-1,2.4-2.4,2.4s-2.4-1-2.4-2.4C11.4,15.9,12.6,14.8,13.8,14.8z M22.4,14.8
	c1.3,0,2.4,1,2.4,2.4c0,1.4-1,2.4-2.4,2.4s-2.4-1-2.4-2.4C20,15.9,21,14.8,22.4,14.8z M13.7,25.1c0,0,5.3,2.5,8.9,0 M13,26.2
	c3.2,1.5,7.1,2,10.1,0c1.4-0.9,0.1-3.1-1.3-2.3c-2.3,1.5-5.4,1-7.5,0C12.9,23.2,11.6,25.5,13,26.2L13,26.2z M32.4,17
	c-1.7-5.8-6.8-10.1-12.8-10.6c0.4-0.8,1.1-1.9,2.1-2.2c1.5-0.5,0.9-3-0.7-2.5c-1.4,0.5-2.6,1.7-3.4,3c-0.7-0.5-1.5-1-2.4-1.2
	c-1.5-0.5-2.3,2-0.7,2.5c0.4,0.1,0.8,0.3,1.2,0.6C10,7.4,5.4,11.5,3.7,17.1c-2,0.2-3.7,2-3.7,4.2s1.7,3.9,3.7,4.2
	C5.7,31.6,11.4,36,18,36s12.5-4.4,14.2-10.7c2.1-0.2,3.7-2,3.7-4.2S34.5,17.2,32.4,17z M32,23.2h-0.1l-1-0.1l-0.2,0.9
	c-1.3,5.8-6.5,9.9-12.5,9.9S7,29.9,5.7,24.1l-0.2-0.9l-1,0.1H4.3c-1.1,0-2.2-0.9-2.2-2.1c0-1.1,0.9-2.1,2.2-2.1h0.1l1,0.1l0.2-0.8
	c1.3-5.8,6.5-9.9,12.5-9.9s11.1,4.1,12.5,9.9l0.2,0.9l1-0.1h0.1c1.1,0,2.2,0.9,2.2,2.1C34,22.3,33.1,23.2,32,23.2z"/>
</svg>
