<?xml version="1.0" encoding="utf-8"?>
<!-- Generator: Adobe Illustrator 21.0.0, SVG Export Plug-In . SVG Version: 6.00 Build 0)  -->
<svg version="1.1" id="Слой_1" xmlns="http://www.w3.org/2000/svg" xmlns:xlink="http://www.w3.org/1999/xlink" x="0px" y="0px"
	 viewBox="0 0 36 36" style="enable-background:new 0 0 36 36;" xml:space="preserve">
<style type="text/css">
	.st0{fill:#66CCCC;}
</style>
<path class="st0" d="M35.1,12.5c-0.1-0.2-0.3-0.5-0.5-0.6c-0.7-0.3-1.5-0.6-2.3-0.9c-0.8-0.3-1.3,0-1.5,0.9
	c-0.1,0.7-0.1,1.4-0.2,2.1c-0.3,1.8-1.5,2.7-3.1,2.1c-0.6-0.2-1.1-0.6-1.8-0.8c-1-0.5-1.5-0.2-1.5,1c0,0.6,0,1.2-0.1,1.8
	c-0.2,2.1-2,3.2-3.8,2.2c-0.5-0.3-1-0.6-1.5-0.8c-0.4-0.2-0.8-0.1-0.9,0.4c-0.1,1-0.7,4.4-0.5,5.4c0.5,2.2,0.3,4.4-1.2,6.1
	c-1.7,1.8-4.8,2.1-7,1s-2.9-2.7-3.1-3.2s-1-3.3-0.1-4.9c1-1.8,3.8-2.2,5.8-0.9c0.2,0.1,0.3,0.2,0.6,0.5l0,0c0.2,0.2,1.3,1.4,1.1,3.1
	c0,0.8-0.4,1.5-1.1,1.8c-0.7,0.2-1.3,0.1-2-0.6c0.8-0.1,1.4-0.5,1.7-1.1c0.2-0.6,0.1-1.4-0.8-2.2c-1-0.8-2.2-0.8-3.4,0.4
	c-1.2,1.2-0.2,3.9,1,4.9c0.6,0.5,1,0.8,2.4,1.1c1.3,0.3,3.8-0.6,4.3-2.4c0.7-2.3,0.1-4.4-1.3-6.3l0,0l0,0c-0.1-0.2-0.7-0.8-0.9-1
	c-1.3-1.2-2.9-1.7-4.5-1.8c-2.9-0.2-5.1,1.5-5.7,4.4c-0.5,2.7,0.5,6,1.4,7.4c0.5,0.8,1.3,1.6,1.9,2c2.3,1.8,7.2,3.4,10.8,1.4
	c2.7-1.4,14.2-10.2,16.3-12.1C36.3,20.2,36.6,16.8,35.1,12.5z M5.9,17.9c1.8-0.5,3.5-0.3,5.3,0.3c0.7,0.3,1.9,0.9,2.6,1.2
	c0.1,0.1,0.3,0.2,0.4,0.3c0.7,0.7,0.9,0.7,1.3-0.3c0.4-1,1-2.2,2-2.4c0.9-0.2,2.3,0.4,3.4,1.1c1,0.7,1.3,0.5,1.5-0.9
	c0.1-0.7,0.1-1.5,0.3-2.2c0.3-1.5,1.5-2.3,3-1.8c0.6,0.2,1.2,0.6,1.9,0.9c1,0.5,1.7,0.2,1.8-1c0.1-0.6,0-1.2,0.1-1.8
	c0.2-1.7,1.8-2.5,3.3-1.5c0.4,0.3,0.8,0.5,1.2,0.8c-2-3-4.7-4.2-7.8-4.7c-0.2,0-0.8-0.1-0.9-0.1c-1.9-0.1-3.5,0.1-5.1,0.8
	C16,8.6,3.1,15.9,1.6,17.7c-2.2,2.7-2,6.8-0.7,9.5c0-0.7,0-1.3,0-2C1,21.6,3,18.8,5.9,17.9z"/>
</svg>
