<?xml version="1.0" encoding="utf-8"?>
<!-- Generator: Adobe Illustrator 21.0.0, SVG Export Plug-In . SVG Version: 6.00 Build 0)  -->
<svg version="1.1" id="Слой_1" xmlns="http://www.w3.org/2000/svg" xmlns:xlink="http://www.w3.org/1999/xlink" x="0px" y="0px"
	 viewBox="0 0 36 36" style="enable-background:new 0 0 36 36;" xml:space="preserve">
<style type="text/css">
	.st0{fill:#4169E1;}
</style>
<path class="st0" d="M25.4,11.9c0-0.4,0-0.7-0.1-1C25.1,10.1,24.6,9.5,24,9c-1.4-1-4.4-1.9-4.8-1.9s-0.5,0.1-0.6,0.2
	c-0.1,0.2-0.1,0.5,0,0.7c0.4,0.8,0,1.2-0.6,1.2s-1.8,0.1-2.2,0.2c-1.1,0.3-1.7,1.3-1.4,2.5C18,11.9,21.7,11.9,25.4,11.9z M35.9,19.2
	c0-0.5-0.3-0.9-0.8-1c-0.7-0.2-1.5-0.1-2.2-0.1c-0.9,0-1.8,0-2.7,0c-3.4,0-17.4,0-20.8,0c-0.9,0-1.8,0-2.7,0c-0.7,0-1.5-0.1-2.2,0.1
	c-0.5,0.1-0.8,0.5-0.8,1c-0.1,0.7-0.1,1.6,0,2.4c0,0.6,0.2,1.1,0.6,1.6c0.1,0.1,0.2,0.2,0.3,0.3s0.3,0.2,0.4,0.3
	c0.1,0,0,0.5,0.1,0.7c0.2,1.4,0.7,2.7,1.3,3.9c1.3,2.4,3.3,4.3,5.6,5.6c2.4,1.3,5.1,2,7.8,2l0,0l0,0l0,0l0,0c2.7,0,5.4-0.7,7.8-2
	c2.3-1.3,4.3-3.2,5.6-5.6c0.6-1.2,1.1-2.5,1.3-3.9c0.1-0.2,0-0.7,0.1-0.7c0.1-0.1,0.3-0.2,0.4-0.3s0.2-0.2,0.3-0.3
	c0.4-0.5,0.6-1,0.6-1.6C36,20.8,36,19.9,35.9,19.2z M34.8,19.5c0,0.3,0,0.7,0,1.1c0,0.3,0,0.7,0,1.1c-0.1,0.7-0.6,0.8-1,1.2
	c-0.5,0.4-0.4,1.1-0.5,1.7s-0.3,1.2-0.5,1.8c-0.4,1.1-1,2.2-1.8,3.2c-1.5,1.8-3.5,3.3-5.7,4.2c-1.6,0.6-3.2,0.9-4.9,1l0,0h-0.3
	c-0.1,0-0.2,0-0.3,0l0,0l0,0l0,0l0,0l0,0l0,0l0,0l0,0c-0.1,0-0.2,0-0.3,0h-0.2l0,0c-1.7-0.1-3.4-0.4-5-1c-2.2-0.9-4.2-2.4-5.7-4.2
	c-0.8-1-1.4-2.1-1.8-3.2c-0.2-0.6-0.4-1.2-0.5-1.8c-0.1-0.6,0-1.3-0.5-1.7c-0.4-0.4-0.9-0.5-1-1.2c0-0.4,0-0.8,0-1.1
	c0-0.4,0-0.8,0-1.1c0,0,0,0,0-0.1c0.1,0,0.2,0,0.3,0c0.4,0,0.8,0,1.2,0c0.9,0,1.9,0,2.8,0c3.4,0,18.1,0,21.4,0c0.9,0,1.9,0,2.8,0
	c0.4,0,0.8,0,1.2,0C34.6,19.4,34.7,19.4,34.8,19.5L34.8,19.5z M29.4,15.2c-0.2-1.3-1.1-2.4-2.6-2.7c-1-0.2-12.3-0.1-13.1-0.1
	c-2,0.2-3.1,1.1-3.2,2.8v2.1h19L29.4,15.2z M29.5,20.7c-1-0.3-2.9-0.5-4.4-0.5c-1.7,0-3.5,0.1-5.3,0.2c-1.8,0-3.5-0.1-5.3-0.2
	c-1.5,0-3.4,0.2-4.4,0.5s-2.3,1.5-2.3,3.8s1.3,4.2,3,5.7c2.5,2.1,5.8,3.1,9,3c3.2,0,6.5-0.9,9-3c1.7-1.5,3-3.4,3-5.7
	S30.5,21,29.5,20.7z"/>
</svg>
