<?xml version="1.0" encoding="utf-8"?>
<!-- Generator: Adobe Illustrator 21.0.0, SVG Export Plug-In . SVG Version: 6.00 Build 0)  -->
<svg version="1.1" id="Слой_1" xmlns="http://www.w3.org/2000/svg" xmlns:xlink="http://www.w3.org/1999/xlink" x="0px" y="0px"
	 viewBox="0 0 36 36" style="enable-background:new 0 0 36 36;" xml:space="preserve">
<style type="text/css">
	.st0{fill:#4169E1;}
</style>
<path class="st0" d="M36,19.8c0-1.3-0.5-2.4-1.5-3.3c-1.2-1.1-2.7-1.9-4.4-2.4c-4.2-1.2-8.3-1.2-12.5-0.4c-2,0.4-3.8,1.1-5.4,2.3
	c-1.4,1.1-2.1,2.5-2,4.1c0,1.6,0,3,0,4.5l0,0c0,1.6,0,3.1,0,4.7s0.6,2.8,1.9,3.7c1.1,0.8,2.3,1.4,3.6,1.9c3.7,1.1,7.6,1.3,11.5,0.7
	c2.5-0.4,4.7-1,6.6-2.5c1.4-1,2.1-2.3,2.1-3.8C36,26.3,36,23,36,19.8z M23.1,22.9c-5.8,0-10.3-1.7-10.3-3.7s4.7-3.7,10.3-3.7
	c5.8,0,10.3,1.7,10.3,3.7S28.9,22.9,23.1,22.9z M23.1,16.9c3.5,0,6.3,1,6.3,2.3c0,1.3-2.8,2.3-6.3,2.3s-6.3-1-6.3-2.3
	C16.8,18,19.6,16.9,23.1,16.9z M26.9,0c3.2,1.3,4.1,2.9,2.7,5.1c-0.6,1-1.6,2-2.3,3c-1,1.2-1.4,2.5-0.6,3.8c-2.8-0.6-4.1-2.5-3-4.3
	c0.5-1,1.4-2,2.2-3C27.3,2.7,27.5,2,26.9,0z M19.6,0c3.3,1.2,4.2,2.9,2.8,5c-0.5,0.8-1.3,1.7-1.9,2.6c-1.1,1.3-1.9,2.8-1.1,4.4
	c-3-1-4.2-2.7-3-4.7c0.6-1.1,1.5-2.2,2.3-3.2C19.7,2.9,20.3,1.6,19.6,0z"/>
</svg>
