<?xml version="1.0" encoding="utf-8"?>
<!-- Generator: Adobe Illustrator 21.0.2, SVG Export Plug-In . SVG Version: 6.00 Build 0)  -->
<svg version="1.1" id="Слой_1" xmlns="http://www.w3.org/2000/svg" xmlns:xlink="http://www.w3.org/1999/xlink" x="0px" y="0px"
	 viewBox="0 0 36 36" style="enable-background:new 0 0 36 36;" xml:space="preserve">
<style type="text/css">
	.st0{fill:#4169E1;}
</style>
<path class="st0" d="M27.4,11.4c2.3,0,4.2,0.7,4.2,1.7c0,0.9-1.9,1.7-4.2,1.7s-4.2-0.7-4.2-1.7C23.1,12.1,25,11.4,27.4,11.4z
	 M8.6,11.4c2.3,0,4.2,0.7,4.2,1.7c0,0.9-1.9,1.7-4.2,1.7S4.4,14,4.4,13.1C4.4,12.1,6.3,11.4,8.6,11.4z M36,24c0-0.9-0.3-1.8-1-2.5
	c-0.8-0.8-1.7-1.3-2.9-1.8c-2.7-0.9-5.4-0.9-8.2-0.3c-1.3,0.3-2.6,0.8-3.6,1.7c-0.9,0.8-1.4,1.8-1.3,3c0,1.1,0,2.3,0,3.3l0,0
	c0,1.1,0,2.3,0,3.4s0.4,2,1.2,2.8c0.7,0.6,1.5,1,2.5,1.3c2.5,0.8,5,1,7.6,0.5c1.6-0.3,3.1-0.8,4.4-1.9c0.9-0.7,1.4-1.7,1.3-2.8
	C36,28.8,36,26.4,36,24z M27.5,26.3c-3.8,0-6.9-1.2-6.9-2.7c0-1.6,3.1-2.8,6.9-2.8s6.9,1.2,6.9,2.8C34.3,25.1,31.3,26.3,27.5,26.3z
	 M17.3,24c0-0.9-0.3-1.8-1-2.5c-0.8-0.8-1.9-1.3-2.9-1.8c-2.8-0.9-5.6-0.9-8.3-0.3c-1.3,0.3-2.6,0.8-3.6,1.7c-1,0.9-1.4,2-1.4,3.2
	c0,1.1,0,2.3,0,3.3l0,0c0,1.1,0,2.3,0,3.4s0.4,2,1.2,2.8c0.7,0.6,1.5,1,2.5,1.3c2.5,0.8,5.1,1,7.7,0.5c1.6-0.3,3.2-0.8,4.4-1.9
	c0.9-0.7,1.4-1.7,1.4-2.8C17.3,28.8,17.3,26.4,17.3,24z M8.6,26.3c-3.8,0-7-1.2-7-2.8s3.1-2.8,7-2.8c3.8,0,7,1.2,7,2.8
	S12.4,26.3,8.6,26.3z M27.4,22.1c2.3,0,4.2,0.7,4.2,1.7c0,0.9-1.9,1.7-4.2,1.7s-4.2-0.7-4.2-1.7C23.1,22.8,25,22.1,27.4,22.1z
	 M18.8,17.1L18.8,17.1c0,1.1,0,2.3,0,3.4c0,0.1,0,0.3,0,0.4c0.2-0.3,0.5-0.6,0.8-0.9c1-0.9,2.4-1.6,3.9-1.9c3.1-0.7,6-0.6,8.6,0.3
	c1.3,0.4,2.4,1,3.2,1.9c0.2,0.2,0.3,0.4,0.4,0.5c0-0.1,0-0.2,0-0.4c0-2.4,0-4.7,0-7c0-0.9-0.3-1.8-1-2.5C33.9,10,33,9.5,31.9,9.1
	c-2.8-0.9-5.6-0.9-8.3-0.3C22.3,9.1,21,9.6,20,10.5c-0.9,0.8-1.4,1.8-1.3,3C18.8,14.9,18.8,16.1,18.8,17.1z M27.4,10.3
	c3.8,0,6.9,1.2,6.9,2.8s-3.1,2.8-6.9,2.8s-6.9-1.2-6.9-2.8S23.5,10.3,27.4,10.3z M0.1,17.1L0.1,17.1c0,1.1,0,2.3,0,3.4
	c0,0.1,0,0.3,0,0.4c0.2-0.3,0.5-0.6,0.8-0.9c1-0.9,2.4-1.6,3.9-1.9c3.1-0.7,6-0.5,8.6,0.3c1.3,0.4,2.4,1,3.2,1.9
	c0.2,0.2,0.3,0.4,0.4,0.5c0-0.1,0-0.2,0-0.4c0-2.4,0-4.7,0-7c0-0.9-0.3-1.8-1-2.5c-0.6-0.6-1.6-1.1-2.7-1.4
	c-2.7-0.9-5.4-0.9-8.2-0.3C3.8,9.5,2.5,10,1.5,10.9c-0.9,0.8-1.4,1.8-1.3,3C0.1,14.9,0.1,16.1,0.1,17.1z M8.6,10.3
	c3.8,0,6.9,1.2,6.9,2.8s-3.1,2.8-6.9,2.8s-6.9-1.2-6.9-2.8S4.8,10.3,8.6,10.3z M8.6,22.1c2.3,0,4.2,0.7,4.2,1.7
	c0,0.9-1.9,1.7-4.2,1.7s-4.2-0.7-4.2-1.7C4.4,22.8,6.3,22.1,8.6,22.1z"/>
</svg>
