<svg xmlns="http://www.w3.org/2000/svg" viewBox="0 0 360 443">
    <defs>
        <clipPath id="a"><path fill="none" d="M0 0l200.614 376.262-6.768 12.725L0 400V0z"/></clipPath>
    </defs>
    <g data-name="Слой 2">
        <path fill="#537dcf" d="M0 0l207 388.24L0 400V0"/>
        <text transform="translate(205.016 286.985)" font-size="64" fill="#fff" style="font-family: Roboto,Arial,Ubuntu,Sans; font-weight: 600;" >404</text><path
            d="M116.251 382.058l45.813.311a16.716 16.716 0 0 0 1.241-33.393c0-.022.005-.039.005-.058l-1.061-.007-19.919-.137v-10.725a7.6 7.6 0 1 0-6.163 0v10.687l-19.733-.13-1.049-.007s-.007.037 0 .05a16.718 16.718 0 0 0 .862 33.409zM162 356.53c.065-.006.136-.025.208-.025a9.136 9.136 0 1 1-8.515 12.57 8.989 8.989 0 0 1-.671-3.485 9.115 9.115 0 0 1 8.978-9.06zm-45.609-.332c.079 0 .145.015.214.018a8.584 8.584 0 1 1-.214-.018zm30.061 21.734c-1.418-1.353-4.343-2.227-7.452-2.227-2.979 0-5.763.788-7.264 2.057l-2.582-3.055c2.224-1.88 5.9-3 9.846-3 4.208 0 8.026 1.246 10.214 3.332zM269.282 200.169c-55.278-2.2-100.6 5.682-102.782 46.283-1.087 20.3 10.076 39.2 28.756 59.1a83.46 83.46 0 0 0 18.234 14.562 42.025 42.025 0 0 1-19.55 18.839s21.516-.793 38.144-10.358a106.7 106.7 0 0 0 29.229 5.327c22.458.9 49.441-8.027 70.332-27.236 19.663-18.083 27.214-32.8 28.265-52.483 2.18-40.603-35.357-51.829-90.628-54.034z"
            fill="#08a9ae"/><path
            d="M207.016 377.526l-5.515-2.933-8.372 15.74 5.514 2.933 7.22-.144 4.453 2.368c.909 7.935-.842 14.422-5.229 19.286-5.562 6.169-15 9.164-22.643 9.666l-.04-.242c-.481-2.123-.867-3.689-2.042-7.454-4.459-14.247-15.6-26.908-30.649-30.724a19.442 19.442 0 0 1-3.152 5.212 17.914 17.914 0 0 1-3.561 3.053 2.411 2.411 0 0 0-.64 3.072 106.485 106.485 0 0 1 4.556 13c1.825 6.559 2.847 9.9 2.5 11.783s-1.172 3.464-3.495 6.106c-2.023 2.3-4.828 5.177-6.672 5.177s-4.653-2.879-6.671-5.177c-2.327-2.642-3.14-4.216-3.495-6.106s.671-5.224 2.491-11.783a106.407 106.407 0 0 1 4.563-13 2.416 2.416 0 0 0-.643-3.072 17.98 17.98 0 0 1-3.558-3.052 19.308 19.308 0 0 1-3.152-5.212c-15.047 3.817-26.189 16.477-30.646 30.724-.566 1.806-1.311 4.405-2.012 7.575-7.157-.767-15.606-3.746-20.846-9.454-4.309-4.692-6.222-10.874-5.713-18.389l2.912-1.513a13.362 13.362 0 1 0-4.149-7.986l-16.586 8.62 4.148 7.986 3.7-1.923a32.313 32.313 0 0 0 8.319 19.972c7.267 7.914 17.759 11.548 26.579 12.571A81.2 81.2 0 0 0 94 443h90.28a84.985 84.985 0 0 0-.436-8.623c9.355-.735 20.962-4.356 28.67-12.9a31.793 31.793 0 0 0 8-20.56l5.588 2.972 5.068-9.53-20.237-10.764zM74.533 383a7.326 7.326 0 0 1 6.967-5.11 7.322 7.322 0 0 1 6.981 9.521A7.313 7.313 0 0 1 74.533 383z"
            fill="#08a9ae"/>
        <text transform="translate(205.016 286.985)" font-size="64" fill="#fff" style="font-family: Roboto,Arial,Ubuntu,Sans; font-weight: 600;" >404</text>
        <g clip-path="url(#a)" fill="#b5e5e7"><path
            d="M116.251 382.058l45.813.311a16.716 16.716 0 0 0 1.241-33.393c0-.022.005-.039.005-.058l-1.061-.007-19.919-.137v-10.725a7.6 7.6 0 1 0-6.163 0v10.687l-19.733-.13-1.049-.007s-.007.037 0 .05a16.718 16.718 0 0 0 .862 33.409zm30.2-4.125c-1.418-1.353-4.343-2.227-7.452-2.227-2.979 0-5.763.788-7.264 2.057l-2.582-3.055c2.224-1.88 5.9-3 9.846-3 4.208 0 8.026 1.246 10.214 3.332zM162 356.53c.065-.006.136-.025.208-.025a9.136 9.136 0 1 1-8.515 12.57 8.989 8.989 0 0 1-.671-3.485 9.115 9.115 0 0 1 8.978-9.06zm-45.609-.332c.079 0 .145.015.214.018a8.584 8.584 0 1 1-.214-.018zM269.282 200.169c-55.278-2.2-100.6 5.682-102.782 46.283-1.087 20.3 10.076 39.2 28.756 59.1a83.46 83.46 0 0 0 18.234 14.562 42.025 42.025 0 0 1-19.55 18.839s21.516-.793 38.144-10.358a106.7 106.7 0 0 0 29.229 5.327c22.458.9 49.441-8.027 70.332-27.236 19.663-18.083 27.214-32.8 28.265-52.483 2.18-40.603-35.357-51.829-90.628-54.034z"/><path
            d="M207.016 377.526l-5.515-2.933-8.372 15.74 5.514 2.933 7.22-.144 4.453 2.368c.909 7.935-.842 14.422-5.229 19.286-5.562 6.169-15 9.164-22.643 9.666l-.04-.242c-.481-2.123-.867-3.689-2.042-7.454-4.459-14.247-15.6-26.908-30.649-30.724a19.442 19.442 0 0 1-3.152 5.212 17.914 17.914 0 0 1-3.561 3.053 2.411 2.411 0 0 0-.64 3.072 106.485 106.485 0 0 1 4.556 13c1.825 6.559 2.847 9.9 2.5 11.783s-1.172 3.464-3.495 6.106c-2.023 2.3-4.828 5.177-6.672 5.177s-4.653-2.879-6.671-5.177c-2.327-2.642-3.14-4.216-3.495-6.106s.671-5.224 2.491-11.783a106.407 106.407 0 0 1 4.563-13 2.416 2.416 0 0 0-.643-3.072 17.98 17.98 0 0 1-3.558-3.052 19.308 19.308 0 0 1-3.152-5.212c-15.047 3.817-26.189 16.477-30.646 30.724-.566 1.806-1.311 4.405-2.012 7.575-7.157-.767-15.606-3.746-20.846-9.454-4.309-4.692-6.222-10.874-5.713-18.389l2.912-1.513a13.362 13.362 0 1 0-4.149-7.986l-16.586 8.62 4.148 7.986 3.7-1.923a32.313 32.313 0 0 0 8.319 19.972c7.267 7.914 17.759 11.548 26.579 12.571A81.2 81.2 0 0 0 94 443h90.28a84.985 84.985 0 0 0-.436-8.623c9.355-.735 20.962-4.356 28.67-12.9a31.793 31.793 0 0 0 8-20.56l5.588 2.972 5.068-9.53-20.237-10.764zM74.533 383a7.326 7.326 0 0 1 6.967-5.11 7.322 7.322 0 0 1 6.981 9.521A7.313 7.313 0 0 1 74.533 383z"/></g>

    </g>
</svg>
