<svg xmlns="http://www.w3.org/2000/svg" viewBox="0 0 333 243.167">
    <g data-name="Слой 2"><path
        d="M242.282.336C187-1.867 141.681 6.017 139.5 46.619c-1.087 20.3 10.076 39.2 28.756 59.1a83.46 83.46 0 0 0 18.234 14.562 42.025 42.025 0 0 1-19.55 18.839s21.516-.793 38.144-10.358a106.7 106.7 0 0 0 29.229 5.327c22.458.9 49.441-8.027 70.332-27.236 19.663-18.083 27.214-32.8 28.265-52.483 2.18-40.604-35.357-51.829-90.628-54.034zM89.251 182.225l45.813.311a16.716 16.716 0 0 0 1.241-33.393c0-.022.005-.039.005-.058l-1.061-.007-19.919-.137v-10.725a7.6 7.6 0 1 0-6.163 0V148.9l-19.733-.13-1.049-.007s-.007.037 0 .05a16.718 16.718 0 0 0 .862 33.409zM135 156.7c.065-.006.136-.025.208-.025a9.136 9.136 0 1 1-8.515 12.57 8.989 8.989 0 0 1-.671-3.485A9.115 9.115 0 0 1 135 156.7zm-45.609-.332c.079 0 .145.015.214.018a8.584 8.584 0 1 1-.214-.018zM161.628 194.586a34.58 34.58 0 0 0-21.8.946 40.2 40.2 0 0 0-17.113-9.342 19.442 19.442 0 0 1-3.152 5.212 17.914 17.914 0 0 1-3.563 3.052 2.411 2.411 0 0 0-.64 3.072 106.485 106.485 0 0 1 4.556 13c1.825 6.559 2.847 9.9 2.5 11.783s-1.172 3.464-3.495 6.106c-2.023 2.3-4.828 5.177-6.672 5.177s-4.653-2.879-6.671-5.177c-2.327-2.642-3.14-4.216-3.495-6.106s.671-5.224 2.491-11.783a106.407 106.407 0 0 1 4.563-13 2.416 2.416 0 0 0-.643-3.072 17.98 17.98 0 0 1-3.558-3.052 19.308 19.308 0 0 1-3.152-5.212c-15.047 3.817-26.189 16.477-30.646 30.724A90.491 90.491 0 0 0 67 243.167h90.28c0-1.358-.038-2.636-.093-3.883l.15.411c7.515-2.743 13.37-6.924 16.934-12.093a20.646 20.646 0 0 0 2.458-19.262c-2.413-6.61-7.776-11.495-15.101-13.754zm4.41 27.34c-2.007 2.911-5.458 5.5-9.839 7.444-.241-1.633-.507-3.281-.793-5-.481-2.123-.867-3.689-2.042-7.454a49.616 49.616 0 0 0-6.338-13.071 23.205 23.205 0 0 1 11.656.3c3.018.931 6.969 3.01 8.653 7.627a10.616 10.616 0 0 1-1.297 10.153z"
        fill="#08a9ae"/>
        <text transform="translate(178.016 87.15)" font-size="64" fill="#fff" style="font-family: Roboto,Arial,Ubuntu,Sans; font-weight: 600;">403</text><path fill="#08a9ae" d="M40.25 243.167H15.5V69.56l12.375-8 12.375 8v173.607"/>
        <path fill="#476fbd" d="M15.5 158.417h24.75v13.5H15.5zM15.5 132.37h24.75v13.5H15.5zM15.5 106.324h24.75v13.5H15.5zM15.5 80.278h24.75v13.5H15.5zM15.5 185.417h24.75v13.5H15.5z"/>
        <path fill="#08a9ae" d="M0 85.5h57.333v26H0z"/><path
            d="M7.445 99.663v2.5H5.98v-7.105h2.774a3.2 3.2 0 0 1 1.408.293 2.154 2.154 0 0 1 .936.832 2.328 2.328 0 0 1 .327 1.229 2.042 2.042 0 0 1-.716 1.648 2.981 2.981 0 0 1-1.979.6zm0-1.187h1.309a1.287 1.287 0 0 0 .887-.273 1 1 0 0 0 .3-.781 1.172 1.172 0 0 0-.308-.845 1.15 1.15 0 0 0-.85-.332H7.445zM15.976 100.7h-2.569l-.488 1.465h-1.558l2.646-7.109h1.357l2.661 7.109h-1.556zM13.8 99.516h1.78l-.894-2.661zM22.776 100.3a.75.75 0 0 0-.293-.637 3.823 3.823 0 0 0-1.055-.469 7.55 7.55 0 0 1-1.206-.486 1.97 1.97 0 0 1-1.211-1.763 1.724 1.724 0 0 1 .324-1.028 2.117 2.117 0 0 1 .934-.705 3.509 3.509 0 0 1 1.364-.254 3.2 3.2 0 0 1 1.357.275 2.16 2.16 0 0 1 .925.779 2.029 2.029 0 0 1 .33 1.143h-1.464a.962.962 0 0 0-.308-.76 1.269 1.269 0 0 0-.864-.271 1.343 1.343 0 0 0-.835.228.715.715 0 0 0-.3.6.685.685 0 0 0 .35.581 3.94 3.94 0 0 0 1.027.439 4.447 4.447 0 0 1 1.821.933 1.857 1.857 0 0 1 .571 1.387 1.709 1.709 0 0 1-.7 1.447 3.053 3.053 0 0 1-1.88.525 3.615 3.615 0 0 1-1.494-.3 2.349 2.349 0 0 1-1.027-.822 2.106 2.106 0 0 1-.354-1.211h1.47q0 1.176 1.406 1.177a1.374 1.374 0 0 0 .815-.212.693.693 0 0 0 .297-.596zM27.1 99.663v2.5h-1.462v-7.105h2.773a3.2 3.2 0 0 1 1.408.293 2.154 2.154 0 0 1 .936.832 2.328 2.328 0 0 1 .327 1.229 2.042 2.042 0 0 1-.716 1.648 2.981 2.981 0 0 1-1.979.6zm0-1.187h1.309a1.287 1.287 0 0 0 .891-.276 1 1 0 0 0 .3-.781 1.172 1.172 0 0 0-.308-.845 1.15 1.15 0 0 0-.85-.332H27.1zM38.327 98.774a4.3 4.3 0 0 1-.371 1.841 2.79 2.79 0 0 1-1.062 1.221 3.137 3.137 0 0 1-3.161 0 2.822 2.822 0 0 1-1.074-1.214 4.161 4.161 0 0 1-.386-1.813v-.352a4.264 4.264 0 0 1 .379-1.849 2.817 2.817 0 0 1 1.068-1.225 3.132 3.132 0 0 1 3.16 0 2.817 2.817 0 0 1 1.068 1.225 4.254 4.254 0 0 1 .379 1.844zm-1.484-.322a3 3 0 0 0-.4-1.7 1.414 1.414 0 0 0-2.28-.007 2.954 2.954 0 0 0-.405 1.682v.347a3.033 3.033 0 0 0 .4 1.689 1.4 1.4 0 0 0 2.285.022 3.012 3.012 0 0 0 .4-1.687zM42.424 99.565h-1.167v2.6h-1.465v-7.107h2.642a2.989 2.989 0 0 1 1.943.562 1.937 1.937 0 0 1 .684 1.587 2.175 2.175 0 0 1-.315 1.213 2.14 2.14 0 0 1-.954.774l1.538 2.905v.068h-1.573zm-1.167-1.187h1.182a1.209 1.209 0 0 0 .854-.281 1 1 0 0 0 .3-.773 1.071 1.071 0 0 0-.286-.791 1.183 1.183 0 0 0-.876-.288h-1.174zM51.682 96.245H49.5v5.923h-1.461v-5.923h-2.148v-1.187h5.791z"
            fill="#fff"/></g>
</svg>
