<svg xmlns="http://www.w3.org/2000/svg" viewBox="0 0 375.875 243.167">
    <g data-name="Слой 2"><path
        d="M71.469 182.225l45.813.311a16.716 16.716 0 0 0 1.241-33.393c0-.022.005-.039.005-.058l-1.061-.007-19.919-.138v-10.724a7.6 7.6 0 1 0-6.163 0V148.9l-19.733-.13-1.049-.007s-.007.038 0 .05a16.718 16.718 0 0 0 .862 33.409zm45.75-25.528c.065-.005.136-.025.208-.025a9.136 9.136 0 1 1-8.515 12.57 8.989 8.989 0 0 1-.671-3.485 9.115 9.115 0 0 1 8.977-9.057zm-45.609-.332c.079 0 .145.015.214.018a8.584 8.584 0 1 1-.214-.018zM224.5.336c-55.278-2.2-100.6 5.682-102.782 46.283-1.087 20.3 10.076 39.2 28.756 59.1a83.46 83.46 0 0 0 18.234 14.562 42.026 42.026 0 0 1-19.55 18.839s21.516-.793 38.144-10.358a106.683 106.683 0 0 0 29.229 5.327c22.458.9 49.441-8.027 70.332-27.236 19.663-18.083 27.214-32.8 28.265-52.483C317.307 13.766 279.771 2.541 224.5.336z"
        fill="#08a9ae"/><path
        d="M166.3 184.077a2.013 2.013 0 0 1-.548-1.845 9.793 9.793 0 0 0-11.977-11.564l5.022 5.022a1.714 1.714 0 0 1 .444 1.656l-.991 3.7a1.715 1.715 0 0 1-1.212 1.212l-3.7.991a1.714 1.714 0 0 1-1.656-.444l-5.022-5.022a9.793 9.793 0 0 0 11.564 11.977 2.013 2.013 0 0 1 1.845.548l5.484 5.484c.875 7.874-.883 14.315-5.245 19.151-5.562 6.168-15 9.167-22.643 9.667-.014-.082-.026-.161-.04-.243-.481-2.123-.867-3.689-2.042-7.454-4.459-14.247-15.6-26.908-30.649-30.725a19.441 19.441 0 0 1-3.152 5.212 17.916 17.916 0 0 1-3.559 3.053 2.411 2.411 0 0 0-.64 3.072 106.5 106.5 0 0 1 4.556 13c1.825 6.559 2.847 9.9 2.5 11.783s-1.172 3.464-3.495 6.106c-2.023 2.3-4.828 5.177-6.672 5.177s-4.653-2.879-6.671-5.177c-2.327-2.642-3.14-4.216-3.495-6.106s.671-5.224 2.491-11.783a106.422 106.422 0 0 1 4.563-13 2.416 2.416 0 0 0-.643-3.072 17.982 17.982 0 0 1-3.558-3.053A19.307 19.307 0 0 1 84 186.189c-15.047 3.817-26.189 16.478-30.646 30.725-.566 1.805-1.311 4.4-2.012 7.572-7.158-.769-15.606-3.743-20.847-9.451-4.538-4.941-6.418-11.534-5.611-19.6l6.488-6.488a.84.84 0 0 1 1.187 0l5.594 5.594 4.95-10.606-2.765-2.765a.84.84 0 0 1 0-1.187l.088-.088a.84.84 0 0 0 0-1.187l-5.044-5.044a.84.84 0 0 0-1.187 0l-.088.088a.84.84 0 0 1-1.187 0l-3.52-3.514a1.125 1.125 0 0 0-1.591 0l-6.187 6.187a1.125 1.125 0 0 0 0 1.591l3.516 3.517a.839.839 0 0 1 0 1.187L1.4 206.466a4.55 4.55 0 0 0-.45 6.042 4.417 4.417 0 0 0 6.535.335l7.714-7.714a31.7 31.7 0 0 0 7.932 16.671c7.267 7.914 17.759 11.548 26.579 12.571a81.2 81.2 0 0 0-.494 8.8H139.5a84.985 84.985 0 0 0-.436-8.623c9.355-.735 20.962-4.356 28.67-12.9a30.93 30.93 0 0 0 7.565-16.1l6.732 6.732a4.55 4.55 0 0 0 6.042.45 4.418 4.418 0 0 0 .336-6.535zm20.12 26.351a2.1 2.1 0 1 1 0-2.969 2.1 2.1 0 0 1-.003 2.969z"
        fill="#08a9ae"/>
        <text transform="translate(160.234 87.15)" font-size="64" fill="#fff"  style="font-family: Roboto,Arial,Ubuntu,Sans; font-weight: 600;">502</text><path fill="#08a9ae" d="M375.875 243.167l-52.669-42.579 1.825-2.257-7.653-6.188-1.826 2.258-42.867-34.654-5.658 6.998 38.1 30.8-20.363 45.622h3.575l19.363-43.54 53.858 43.54h14.315"/></g>
</svg>
