<svg xmlns="http://www.w3.org/2000/svg" viewBox="0 0 175.5 28.624"><defs><clipPath id="a"><path d="M127.569 23.516h-11.558V2.907a2.433 2.433 0 0 0-4.866 0V25.95a2.432 2.432 0 0 0 2.435 2.43h13.989a2.432 2.432 0 0 0 0-4.864" fill="#fff"/></clipPath><clipPath id="b"><path d="M149.307 1a2.444 2.444 0 0 0-3.424.4l-9.123 11.557a2.441 2.441 0 0 0-.519 1.51v11.287a2.432 2.432 0 1 0 4.863 0V15.309l8.6-10.9a2.438 2.438 0 0 0-.4-3.418" fill="#fff"/></clipPath><clipPath id="c"><path d="M136.233 7.189L131.661 1.4a2.433 2.433 0 1 0-3.819 3.015l4.57 5.788a2.437 2.437 0 0 0 3.414.4 2.439 2.439 0 0 0 .407-3.417" fill="#fff"/></clipPath><clipPath id="d"><path d="M163.993 11.287c-5.457-.83-5.987-2.055-5.987-3.358 0-2.222 3.01-2.887 5.541-2.887a8.455 8.455 0 0 1 6.078 2.736 2.585 2.585 0 0 0 3.562.3 2.433 2.433 0 0 0 .292-3.426A13.5 13.5 0 0 0 163.553.38c-9.661 0-10.414 5.775-10.414 7.549 0 6.766 7.263 7.948 10.006 8.36 5.205.783 6.828 1.859 6.834 3.9.006 2.722-3.3 3.519-6.344 3.519a9.023 9.023 0 0 1-7.035-3.578 2.849 2.849 0 0 0-3.621-.3 2.428 2.428 0 0 0-.319 3.427 14.308 14.308 0 0 0 10.891 5.023c7.275 0 11.621-3.121 11.621-8.35 0-5.98-6.7-7.957-11.181-8.647" fill="#fff"/></clipPath><clipPath id="e"><path d="M7.379.476H2.755A2.43 2.43 0 0 0 .324 2.907v14.8a2.43 2.43 0 1 0 4.859 0V5.339h2.2a9.088 9.088 0 0 1 0 18.177H2.855a2.432 2.432 0 1 0 0 4.864h4.524a13.952 13.952 0 1 0 0-27.9" fill="#fff"/></clipPath><clipPath id="f"><path d="M100.832 8.713a2.433 2.433 0 0 0-2.432 2.429v12.374h-2.195a9.088 9.088 0 0 1 0-18.177h4.522a2.432 2.432 0 1 0 0-4.863h-4.522a13.952 13.952 0 0 0 0 27.9h4.627a2.433 2.433 0 0 0 2.434-2.43V11.142a2.432 2.432 0 0 0-2.434-2.429" fill="#fff"/></clipPath><clipPath id="g"><path d="M69.562 28.32c-2.853 0-6.241-1.726-10.077-5.137-2.43-2.168-5.225-5.116-5.225-8.774 0-3.86 2.937-6.867 5.491-9.059C63.577 2.079 66.789.49 69.562.49a7.885 7.885 0 0 1 7.532 4.728c1.064 2.212 1.558 5.134 1.558 9.19 0 9.232-3.057 13.911-9.09 13.911m0-23.087c-.883 0-2.939.48-6.723 3.724C60.26 11.165 59 12.945 59 14.409c0 1.359 1.16 3.022 3.635 5.231 2.816 2.5 5.339 3.94 6.925 3.94 1.413 0 4.345 0 4.345-9.171 0-3.273-.36-5.607-1.086-7.144a3.194 3.194 0 0 0-3.259-2.032" fill="#fff"/></clipPath><clipPath id="h"><path d="M35.663 28.32c-6.036 0-9.09-4.679-9.09-13.911 0-4.057.488-6.978 1.551-9.19A7.893 7.893 0 0 1 35.663.49c2.773 0 5.987 1.589 9.807 4.86 2.556 2.191 5.493 5.2 5.493 9.059 0 3.658-2.788 6.606-5.226 8.774-3.831 3.41-7.219 5.137-10.074 5.137m0-23.087a3.178 3.178 0 0 0-3.252 2.032c-.737 1.536-1.094 3.87-1.094 7.144 0 9.171 2.935 9.171 4.346 9.171 1.588 0 4.1-1.439 6.922-3.94 2.48-2.21 3.637-3.872 3.637-5.231 0-1.464-1.255-3.244-3.831-5.452-3.791-3.244-5.839-3.724-6.728-3.724" fill="#fff"/></clipPath></defs><g data-name="Слой 2"><path d="M127.569 23.516h-11.558V2.907a2.433 2.433 0 0 0-4.866 0V25.95a2.432 2.432 0 0 0 2.435 2.43h13.989a2.432 2.432 0 0 0 0-4.864" fill="#fff"/><g clip-path="url(#a)"><path fill="#fff" d="M110.82 28.378l.324-28.122 19.179.22-.324 28.122z"/></g><path d="M149.307 1a2.444 2.444 0 0 0-3.424.4l-9.123 11.557a2.441 2.441 0 0 0-.519 1.51v11.287a2.432 2.432 0 1 0 4.863 0V15.309l8.6-10.9a2.438 2.438 0 0 0-.4-3.418" fill="#fff"/><g clip-path="url(#b)"><path fill="#fff" d="M135.915 28.182l.328-28.183 14.618.17-.328 28.182z"/></g><path d="M136.233 7.189L131.661 1.4a2.433 2.433 0 1 0-3.819 3.015l4.57 5.788a2.437 2.437 0 0 0 3.414.4 2.439 2.439 0 0 0 .407-3.417" fill="#fff"/><g clip-path="url(#c)"><path fill="#fff" d="M126.88 11.125l.129-11.077 10.18.119-.13 11.077z"/></g><path d="M163.993 11.287c-5.457-.83-5.987-2.055-5.987-3.358 0-2.222 3.01-2.887 5.541-2.887a8.455 8.455 0 0 1 6.078 2.736 2.585 2.585 0 0 0 3.562.3 2.433 2.433 0 0 0 .292-3.426A13.5 13.5 0 0 0 163.553.38c-9.661 0-10.414 5.775-10.414 7.549 0 6.766 7.263 7.948 10.006 8.36 5.205.783 6.828 1.859 6.834 3.9.006 2.722-3.3 3.519-6.344 3.519a9.023 9.023 0 0 1-7.035-3.578 2.849 2.849 0 0 0-3.621-.3 2.428 2.428 0 0 0-.319 3.427 14.308 14.308 0 0 0 10.891 5.023c7.275 0 11.621-3.121 11.621-8.35 0-5.98-6.7-7.957-11.181-8.647" fill="#fff"/><g clip-path="url(#d)"><path fill="#fff" d="M151.476 28.282l.328-28.175 23.695.275-.327 28.175z"/></g><path d="M7.379.476H2.755A2.43 2.43 0 0 0 .324 2.907v14.8a2.43 2.43 0 1 0 4.859 0V5.339h2.2a9.088 9.088 0 0 1 0 18.177H2.855a2.432 2.432 0 1 0 0 4.864h4.524a13.952 13.952 0 1 0 0-27.9" fill="#fff"/><g clip-path="url(#e)"><path fill="#fff" d="M.001 28.377L.327.23l21.33.247-.325 28.148z"/></g><path d="M100.832 8.713a2.433 2.433 0 0 0-2.432 2.429v12.374h-2.195a9.088 9.088 0 0 1 0-18.177h4.522a2.432 2.432 0 1 0 0-4.863h-4.522a13.952 13.952 0 0 0 0 27.9h4.627a2.433 2.433 0 0 0 2.434-2.43V11.142a2.432 2.432 0 0 0-2.434-2.429" fill="#fff"/><g clip-path="url(#f)"><path fill="#fff" d="M81.934 28.377L82.26.23l21.33.247-.326 28.147z"/></g><path d="M69.562 28.32c-2.853 0-6.241-1.726-10.077-5.137-2.43-2.168-5.225-5.116-5.225-8.774 0-3.86 2.937-6.867 5.491-9.059C63.577 2.079 66.789.49 69.562.49a7.885 7.885 0 0 1 7.532 4.728c1.064 2.212 1.558 5.134 1.558 9.19 0 9.232-3.057 13.911-9.09 13.911m0-23.087c-.883 0-2.939.48-6.723 3.724C60.26 11.165 59 12.945 59 14.409c0 1.359 1.16 3.022 3.635 5.231 2.816 2.5 5.339 3.94 6.925 3.94 1.413 0 4.345 0 4.345-9.171 0-3.273-.36-5.607-1.086-7.144a3.194 3.194 0 0 0-3.259-2.032" fill="#fff"/><g clip-path="url(#g)"><path fill="#fff" d="M53.934 28.316L54.26.206l24.716.286-.325 28.11z"/></g><path d="M35.663 28.32c-6.036 0-9.09-4.679-9.09-13.911 0-4.057.488-6.978 1.551-9.19A7.893 7.893 0 0 1 35.663.49c2.773 0 5.987 1.589 9.807 4.86 2.556 2.191 5.493 5.2 5.493 9.059 0 3.658-2.788 6.606-5.226 8.774-3.831 3.41-7.219 5.137-10.074 5.137m0-23.087a3.178 3.178 0 0 0-3.252 2.032c-.737 1.536-1.094 3.87-1.094 7.144 0 9.171 2.935 9.171 4.346 9.171 1.588 0 4.1-1.439 6.922-3.94 2.48-2.21 3.637-3.872 3.637-5.231 0-1.464-1.255-3.244-3.831-5.452-3.791-3.244-5.839-3.724-6.728-3.724" fill="#fff"/><g clip-path="url(#h)"><path fill="#fff" d="M26.251 28.316l.326-28.11 24.71.287-.326 28.11z"/></g></g></svg>