<svg xmlns="http://www.w3.org/2000/svg" xmlns:xlink="http://www.w3.org/1999/xlink" viewBox="0 0 64 56"><defs><style>.cls-1{fill:none}.cls-2{fill:#08a9ae}</style><symbol id="logo_simbol" data-name="logo_simbol" viewBox="0 0 64 56"><path class="cls-1" d="M0 0h64v56H0z"/><path class="cls-2" d="M39.13 24h-.06a2.37 2.37 0 0 0-2.33 2.36 2.33 2.33 0 0 0 .17.91A2.38 2.38 0 1 0 39.13 24"/><path class="cls-2" d="M33.15 12a17.15 17.15 0 0 0-11.32 30 23 23 0 0 1 .63-2.38 11.71 11.71 0 0 1 8-8 5.05 5.05 0 0 0 .79 1.38 4.73 4.73 0 0 0 .93.8.63.63 0 0 1 .17.8 27.93 27.93 0 0 0-1.19 3.4 9.8 9.8 0 0 0-.65 3.07 3.2 3.2 0 0 0 .91 1.59c.53.6 1.26 1.35 1.73 1.35s1.21-.75 1.74-1.35a3.19 3.19 0 0 0 .91-1.59 9.75 9.75 0 0 0-.65-3.07A27.51 27.51 0 0 0 34 34.62a.63.63 0 0 1 .17-.8 4.71 4.71 0 0 0 .92-.8 5 5 0 0 0 .82-1.35 11.71 11.71 0 0 1 8 8 23.06 23.06 0 0 1 .57 2.33 17.15 17.15 0 0 0-11.33-30m5.93 18.72l-11.92-.08a4.35 4.35 0 0 1-.22-8.69h5.4v-2.76a2 2 0 1 1 1.6 0V22h5.45a4.35 4.35 0 0 1-.32 8.69"/><path class="cls-2" d="M27.27 23.92h-.05a2.52 2.52 0 1 0 .05 0"/></symbol></defs><title>logo_simbol</title><g id="Layer_2" data-name="Layer 2"><use width="64" height="56" xlink:href="#logo_simbol" id="elements"/></g></svg>