<svg id="Слой_1" data-name="Слой 1" xmlns="http://www.w3.org/2000/svg" viewBox="0 0 35.96422 36">
  <defs>
    <style>
      .cls-1 {
        fill: #6cc;
      }
    </style>
  </defs>
  <title>3 Мисо с лососем</title>
  <path class="cls-1" d="M32.57213,3.39677C26.76656-2.40879,15.50129-.58889,7.45894,7.45346A26.82628,26.82628,0,0,0,1.6966,15.91374c-.02882.069-.05764.1369-.08544.20484-.09882.24087-.18323.48483-.27381.72672a1.74646,1.74646,0,0,0-.18425.40557Q.61578,19.04349.07743,20.83611c-.60423,2.01342,2.50751,3.02425,3.11483.99951q.11735-.39373.23572-.78746v.001L3.43,21.04507c.02573-.08749.05044-.174.0772-.26043.13485-.37469.46733-1.00671,1.1467-.98612.04117.01132.07617.01853.11529.02985.034.01029.069.02162.104.03088.28.08132.5682.17087.8626.27175.08235.02779.16881.06073.25219.09058.25631.09058.51365.18528.7751.29028.1297.05353.26146.1122.39116.16984.22646.09779.45189.19455.6804.30366.16779.08132.33763.175.50644.26454.19558.10191.39116.19867.58673.31087.20175.11529.40248.24807.60423.37571.16264.105.32836.1997.491.31189.23778.16161.46939.3438.701.52394.12455.09676.25322.18322.37674.28513a13.96756,13.96756,0,0,1,1.03656.93877c.33042.33042.63614.67011.92127,1.016.09882.11838.18117.23984.27381.3613.17808.22955.35822.45909.51879.69481.104.15029.19352.30572.29131.457.1297.20484.26146.40762.3788.6135.10191.18117.19249.35925.28616.53938.09161.176.18837.3541.27278.52909.09882.2069.18631.41174.27484.61761.06073.14308.12558.28513.18323.42615.09367.23675.17808.47042.26043.70305.034.09882.07205.19867.105.29749.04529.13382.08029.26043.12146.39013a.78671.78671,0,0,0,.05764.2419,1.13772,1.13772,0,0,1-.7854,1.51727q-.60989.19146-1.21876.38189c-2.02474.63306-.9223,3.76229,1.09009,3.13439,1.19508-.37468,2.38708-.74937,3.58422-1.123a1.72217,1.72217,0,0,0,.35513-.15646c.25322-.09367.50541-.18117.75658-.2841v-.001a25.53514,25.53514,0,0,0,4.19874-2.22753c.32939-.21513.65879-.44159.98406-.67629a27.91864,27.91864,0,0,0,3.4679-2.93778c.316-.316.6032-.64438.89966-.96759.07823-.08749.16264-.1719.2419-.26043C36.70808,19.35487,38.08844,8.91309,32.57213,3.39677ZM29.25966,4.57436l-2.42,2.419A19.68447,19.68447,0,0,0,20.0809,3.42971C23.55188,2.58152,26.83347,2.92327,29.25966,4.57436ZM14.9372,5.50386a18.53006,18.53006,0,0,1,9.75726,3.63568l-2.455,2.455a22.61972,22.61972,0,0,0-9.80667-4.45711A24.19965,24.19965,0,0,1,14.9372,5.50386ZM9.43427,9.75716A20.88208,20.88208,0,0,1,20.086,13.74694L17.6475,16.18549A22.68439,22.68439,0,0,0,7.71936,11.7047C8.25257,11.03974,8.81871,10.38816,9.43427,9.75716ZM13.07,20.76406c-.37674-.31292-.75864-.60114-1.14361-.875-.1472-.10294-.29645-.19352-.44365-.29337-.246-.16264-.492-.32425-.737-.4735-.17087-.10294-.33969-.19558-.51056-.29028-.22852-.12867-.45395-.25322-.68246-.36954-.174-.08955-.34586-.174-.52085-.25528-.22337-.10705-.44468-.209-.666-.30572-.16881-.07308-.3366-.14617-.50335-.21411-.22749-.09161-.45086-.176-.6732-.25837-.15337-.05661-.30675-.11426-.45909-.16676-.244-.08338-.47968-.15852-.71746-.23058-.12043-.03912-.244-.08029-.36439-.11426-.35-.10088-.68967-.19352-1.016-.27278-.27793-.06691-.53835-.12352-.79363-.176l.02779.00412c.246.0525.50027.10705.76687.1719A22.38316,22.38316,0,0,1,5.80064,14.4572a20.51133,20.51133,0,0,1,9.69962,3.87964Zm6.72478,12.91841.00206.00721.00206.02059ZM19.37167,31.317c-.07411-.3191-.16058-.65364-.2594-.99539-.04323-.15029-.09367-.31086-.14205-.46527-.06073-.19352-.11735-.38292-.18426-.57953-.06691-.1997-.14514-.40454-.22131-.60835-.05867-.15749-.11735-.316-.1822-.47556-.09058-.23058-.19146-.46012-.29337-.69379-.06382-.14-.12455-.27793-.19043-.41689-.11735-.25013-.244-.49924-.37571-.7504-.06382-.12455-.13073-.247-.19867-.37057-.1472-.26557-.29851-.52909-.46115-.79363-.06691-.10705-.13793-.21411-.2069-.32013-.17911-.279-.36336-.55585-.562-.83069-.05867-.08132-.12558-.16367-.18631-.245-.22234-.29645-.44983-.59085-.69584-.8801l2.4581-2.45913a18.99891,18.99891,0,0,1,4.18433,9.52257A22.85649,22.85649,0,0,1,19.37167,31.317Zm7.00888-4.94194c-.58056.58056-1.18273,1.11994-1.79623,1.62741a21.3318,21.3318,0,0,0-4.77106-9.71506l2.46634-2.46531a19.28385,19.28385,0,0,1,4.27594,10.36561C26.49584,26.2495,26.44231,26.31435,26.38055,26.37508Zm2.73294-3.24144a21.21115,21.21115,0,0,0-4.70519-9.43816l2.43854-2.43854a17.61547,17.61547,0,0,1,3.62436,9.73667A24.30155,24.30155,0,0,1,29.11349,23.13364ZM28.99409,9.1097l2.40046-2.40149c1.62947,2.39531,1.98563,5.6244,1.17552,9.047A18.87446,18.87446,0,0,0,28.99409,9.1097Z" transform="translate(0 0)"/>
</svg>
