<?xml version="1.0" encoding="utf-8"?>
<!-- Generator: Adobe Illustrator 21.0.0, SVG Export Plug-In . SVG Version: 6.00 Build 0)  -->
<svg version="1.1" id="Слой_1" xmlns="http://www.w3.org/2000/svg" xmlns:xlink="http://www.w3.org/1999/xlink" x="0px" y="0px"
	 viewBox="0 0 36 36" style="enable-background:new 0 0 36 36;" xml:space="preserve">
<style type="text/css">
	.st0{fill:#66CCCC;}
</style>
<path class="st0" d="M35.9,19.2c0.5-1.6-2-2.3-2.5-0.7c-0.6,1.9-4.2,2.3-6.4,2.6c-0.1-0.2-0.3-0.4-0.4-0.6l0.1,0.1
	c-0.1-0.1-0.4-0.5,0.8-0.9c0,0,1.4-0.4,1.7-1.5c0.3-1,1.5-1.5,1.8-2c0.3-0.6,1.4-3.3,0.2-3.8c-1.2-0.5,1.2-0.7-1.1-4.3
	c0,0-3.2-5.1-9-4.7c0,0,3.6,5.1,3.4,5.3c-0.2,0.2-5.8-3.4-6.2-3.4c-0.3,0,0.3,8.1,7.2,9.6c0,0,0.5,0.2,0.2,0.7
	c-0.3,0.5-0.1,1.3,0.2,1.5c0,0-1.2,0.2-2.1,0.6c-1.5-1.1-3.4-1.7-5.7-1.8c-0.2,0-0.7,0-0.8,0c-2.4,0.1-4.2,0.7-5.7,1.8
	c-0.9-0.4-2.1-0.6-2.1-0.6c0.3-0.3,0.5-1,0.2-1.5c-0.3-0.5,0.2-0.7,0.2-0.7c6.9-1.5,7.5-9.6,7.2-9.6c-0.3,0-6,3.6-6.2,3.4
	c-0.2-0.2,3.4-5.3,3.4-5.3c-5.8-0.4-9,4.7-9,4.7c-2.3,3.6,0.1,3.8-1.1,4.3c-1.2,0.5-0.1,3.2,0.2,3.8c0.3,0.6,1.6,1,1.8,2
	s1.6,1.5,1.6,1.5c1.2,0.4,0.9,0.8,0.8,0.9l0.1-0.1C9.1,20.8,9,21,8.9,21.2c-2.2-0.3-5.8-0.8-6.4-2.6C2,17-0.4,17.7,0.1,19.2
	c0.9,3,4.6,3.9,7.6,4.3c-0.2,0.4-0.3,0.7-0.5,1.1C7.1,24.9,7.1,25,7,25.2c-0.7,0-1.4,0.1-2,0.1c-1.3,0-2-0.4-3-1.2
	c-1.3-1-2.6,1.2-1.3,2.2c1.2,0.9,2.3,1.5,3.8,1.5c1,0,2,0,3-0.1c0.3,0.6,0.8,1.1,1.4,1.6c-2.5,1-5,2.7-4.5,5.7
	c0.3,1.6,2.7,0.9,2.5-0.7c0.1,0.5,0,0.1,0,0c0-0.3,0.1-0.5,0.2-0.8c0.3-0.7,1.1-1.1,1.7-1.4c0.8-0.4,1.6-0.7,2.4-0.9
	c1.9,1.6,4.1,3.2,6.6,3.5c0.2,0,0.7,0,0.8,0c2.5-0.3,4.7-1.9,6.6-3.5c0.8,0.2,1.6,0.5,2.4,0.9c0.7,0.3,1.4,0.7,1.7,1.4
	c0.1,0.2,0.2,0.5,0.2,0.8c0,0.1-0.1,0.5,0,0c-0.3,1.6,2.2,2.3,2.5,0.7c0.5-3-2-4.7-4.5-5.7c0.5-0.5,1-1,1.4-1.6c1,0.1,2,0.1,3,0.1
	c1.5,0,2.6-0.6,3.8-1.5c1.3-1,0-3.2-1.3-2.2c-1.1,0.8-1.7,1.2-3,1.2c-0.7,0-1.4,0-2-0.1c0-0.2-0.1-0.3-0.2-0.5
	c-0.2-0.4-0.3-0.8-0.5-1.1C31.3,23.1,35,22.3,35.9,19.2z M23.5,29.2c-1.4,1.1-3.3,2.8-5.1,3c-0.2,0-0.7,0-0.8,0
	c-1.8-0.2-3.8-1.9-5.1-3c-1.7-1.4-3.4-2.4-2.4-4.7c1.6-3.5,3.5-5.6,7.5-5.7c0.2,0,0.7,0,0.8,0c4,0.1,6,2.2,7.5,5.7
	C27,26.7,25.3,27.7,23.5,29.2z"/>
</svg>
