<?xml version="1.0" encoding="utf-8"?>
<!-- Generator: Adobe Illustrator 21.0.2, SVG Export Plug-In . SVG Version: 6.00 Build 0)  -->
<svg version="1.1" id="Слой_1" xmlns="http://www.w3.org/2000/svg" xmlns:xlink="http://www.w3.org/1999/xlink" x="0px" y="0px"
	 viewBox="0 0 36 36" style="enable-background:new 0 0 36 36;" xml:space="preserve">
<style type="text/css">
	.st0{fill:#66CCCC;}
</style>
<path class="st0" d="M33.7,21c0-0.1,0-0.2,0-0.3C33.8,20.7,33.7,20.9,33.7,21z M10.9,18.2c-2.8,0-5-2.2-5-4.8s2.2-4.8,5-4.8
	s5,2.2,5,4.8C15.9,16.1,13.6,18.2,10.9,18.2z M10.9,11.2c-1.3,0-2.3,1-2.3,2.2s1,2.2,2.3,2.2s2.3-1,2.3-2.2
	C13.1,12.2,12.1,11.2,10.9,11.2z M25.1,18.2c-2,0-3.6-1.6-3.6-3.5s1.6-3.5,3.6-3.5s3.6,1.6,3.6,3.5S27.1,18.2,25.1,18.2z M25.1,13.5
	c-0.7,0-1.2,0.5-1.2,1.2s0.5,1.2,1.2,1.2s1.2-0.5,1.2-1.2S25.8,13.5,25.1,13.5z M21.2,29.5c-2,0-3.6-1.6-3.6-3.5s1.6-3.5,3.6-3.5
	s3.6,1.6,3.6,3.5C24.8,27.9,23.2,29.5,21.2,29.5z M21.2,24.8c-0.7,0-1.2,0.5-1.2,1.2c0,0.6,0.5,1.2,1.2,1.2s1.2-0.5,1.2-1.2
	C22.4,25.3,21.9,24.8,21.2,24.8z M10.2,27.3c1,0,1.8,0.8,1.8,1.7s-0.8,1.7-1.8,1.7S8.4,29.9,8.4,29S9.2,27.3,10.2,27.3z M6.4,23.9
	c0,0.2,0.1,0.3,0.1,0.5C6.5,24.2,6.4,24.1,6.4,23.9z M6.5,24.4c0,0.1,0,0.3,0,0.4C6.4,24.7,6.5,24.6,6.5,24.4z M25.9,3.9
	C22.2,3.2,18,3.7,14.3,3.7c-4.3,0-8.6,0-12.9,0C0.6,3.7,0,4.3,0,5c0,4.5,0,8.9,0,13.4c0,0.9,0,1.8,0,2.7c0.9,0,1.9,0.3,2.6,0.9
	s1.1,1.4,1.2,2.5c-0.1,1.1-0.5,2-1.2,2.5c-0.7,0.6-1.7,0.9-2.6,0.8c0,0.9,0,1.8,0,2.6c0,1.4,0,2.9,0,4.3C0,35.4,0.6,36,1.3,36
	c6.5,0,12.9,0,19.4,0c7.1,0,14.3-2,15.1-9.9c0-0.1,0-0.2,0-0.3C35.9,16.9,37.7,5.9,25.9,3.9z M33.3,25.7c-0.7,8.8-10.5,7.7-17,7.7
	c-4.6,0-9.1,0-13.6,0c0-1.2,0-2.3,0-3.5c2.1-0.9,3.5-3,3.8-5.2c0-0.1,0-0.3,0-0.4c0-0.2-0.1-0.3-0.1-0.5c-0.3-2.3-1.7-4.1-3.8-5
	c0-4.2,0-12.7,0-12.7s0-0.4,0,0c6.7,0,13.4,0,20.1,0c5.6,0,10.6,2.6,10.6,8.6C33.3,18.5,33.3,22.1,33.3,25.7z"/>
</svg>
