<svg id="Слой_1" data-name="Слой 1" xmlns="http://www.w3.org/2000/svg" viewBox="0 0 34.99568 36">
  <defs>
    <style>
      .cls-1 {
        fill: #6cc;
      }
    </style>
  </defs>
  <title>1 Грибной</title>
  <path class="cls-1" d="M34.721,13.26771a15.0796,15.0796,0,0,0-1.245-3.5429,17.25951,17.25951,0,0,0-5.424-6.34069A18.55229,18.55229,0,0,0,18.884.08684a22.36536,22.36536,0,0,0-5.419.18989A15.931,15.931,0,0,0,9.39,1.43155,14.51154,14.51154,0,0,0,5.985,3.46462,14.674,14.674,0,0,0,3.469,6.055,16.67075,16.67075,0,0,0,1.729,8.926,19.2958,19.2958,0,0,0,.653,11.80329a16.11584,16.11584,0,0,0-.648,4.94438,9.17783,9.17783,0,0,0,1.109,4.44695,6.7428,6.7428,0,0,0,1.621,1.7957,8.05535,8.05535,0,0,0,2.027,1.11045,7.70874,7.70874,0,0,0,2.453.60992,4.81258,4.81258,0,0,0,1.62-.19918q-.0585.52323-.092,1.04853a12.95439,12.95439,0,0,0,.505,4.68534,8.99079,8.99079,0,0,0,1.758,3.18789,8.33354,8.33354,0,0,0,3.132,2.161c-.066-.0289-.132-.05986-.199-.08979a3.357,3.357,0,0,0,.662.2353,10.65456,10.65456,0,0,0,1.064.16615,15.81683,15.81683,0,0,0,1.809.09391,15.45919,15.45919,0,0,0,1.815-.09082,10.71064,10.71064,0,0,0,1.072-.16306,3.204,3.204,0,0,0,.691-.24252c-.067.032-.132.063-.2.09185a10.4145,10.4145,0,0,0,1.337-.65843,9.13837,9.13837,0,0,0,1.138-.85451,7.66633,7.66633,0,0,0,1.538-1.85453,10.578,10.578,0,0,0,1.37-4.69979,15.86216,15.86216,0,0,0-.085-3.01142,5.76977,5.76977,0,0,0,1.228.19711,6.35074,6.35074,0,0,0,2.429-.452,9.10647,9.10647,0,0,0,2.142-1.05162,7.37861,7.37861,0,0,0,.953-.79052,6.83392,6.83392,0,0,0,.76-.93913,8.52961,8.52961,0,0,0,1.28-4.28182A13.891,13.891,0,0,0,34.721,13.26771Zm-24.808,6.253a4.20034,4.20034,0,0,1-.155.61611,3.84512,3.84512,0,0,1-.269.49433,4.095,4.095,0,0,1-.399.42932,4.19177,4.19177,0,0,1-.568.356,4.30633,4.30633,0,0,1-.718.21053,4.06444,4.06444,0,0,1-.76,0,8.00748,8.00748,0,0,1-1.652-.53768,6.47323,6.47323,0,0,1-1.162-.70693,4.82633,4.82633,0,0,1-.574-.613,5.25876,5.25876,0,0,1-.409-.76059,6.35461,6.35461,0,0,1-.18-.60992,10.4602,10.4602,0,0,1,.964-.51291,11.50125,11.50125,0,0,1,2.68-.81323,6.90593,6.90593,0,0,1,1.531-.02683,4.21718,4.21718,0,0,1,.731.2064,3.03609,3.03609,0,0,1,.364.226,2.93761,2.93761,0,0,1,.23.24665,3.30122,3.30122,0,0,1,.184.34366,4.26635,4.26635,0,0,1,.158.645A5.05715,5.05715,0,0,1,9.913,19.52069Zm21.796-.4964a5.32232,5.32232,0,0,1-.414.76988,5.38312,5.38312,0,0,1-.57.60786,6.50256,6.50256,0,0,1-1.148.69455,7.80961,7.80961,0,0,1-1.629.53149,4.05378,4.05378,0,0,1-.759,0,4.28958,4.28958,0,0,1-.719-.21053,4.18138,4.18138,0,0,1-.567-.356,3.79771,3.79771,0,0,1-.399-.42932,3.97161,3.97161,0,0,1-.269-.49433,4.2963,4.2963,0,0,1-.155-.61611,5.17717,5.17717,0,0,1,.004-.807,4.38692,4.38692,0,0,1,.157-.645,3.316,3.316,0,0,1,.186-.34366,2.76933,2.76933,0,0,1,.229-.24665,3.04814,3.04814,0,0,1,.365-.226,4.30591,4.30591,0,0,1,.729-.2064,6.95559,6.95559,0,0,1,1.53.02683,11.51871,11.51871,0,0,1,2.683.81323c.318.15067.632.31373.937.4964C31.845,18.5991,31.781,18.81376,31.709,19.02429ZM31.2,14.71356a11.18861,11.18861,0,0,0-3.635-.76472,6.74988,6.74988,0,0,0-1.883.2064,4.291,4.291,0,0,0-1.588.76472,4.44334,4.44334,0,0,0-1.354,1.68321,6.41557,6.41557,0,0,0-.527,2.56868,5.86151,5.86151,0,0,0,.376,2.062,1.59374,1.59374,0,0,0,.055.3127,21.33644,21.33644,0,0,1,.676,3.11359,14.7787,14.7787,0,0,1,.037,3.17447,9.55444,9.55444,0,0,1-.459,1.8762,7.47259,7.47259,0,0,1-.653,1.21468,6.49386,6.49386,0,0,1-.839.903,6.97724,6.97724,0,0,1-1.321.81116c-.116.05263-.231.10424-.346.15584.11-.05057.227-.10217.339-.15377a2.71223,2.71223,0,0,1-.658.1806,15.42343,15.42343,0,0,1-1.903.10733,14.7518,14.7518,0,0,1-1.944-.10733,2.69527,2.69527,0,0,1-.659-.1806c.114.05263.227.10424.341.15377-.116-.05263-.232-.10424-.347-.15584a6.95992,6.95992,0,0,1-1.32-.81116,6.4938,6.4938,0,0,1-.839-.903,7.24852,7.24852,0,0,1-.653-1.21468,9.48411,9.48411,0,0,1-.459-1.8762,14.57686,14.57686,0,0,1,.037-3.17344,21.37406,21.37406,0,0,1,.674-3.11462,1.44115,1.44115,0,0,0,.055-.30754c.012-.032.024-.065.037-.098a5.97153,5.97153,0,0,0,.312-1.47371,4.97407,4.97407,0,0,0-.012-1.15689,6.45748,6.45748,0,0,0-.239-1.26215,4.7193,4.7193,0,0,0-1.123-1.91851,5.197,5.197,0,0,0-3.629-1.3829,10.49062,10.49062,0,0,0-3.637.64914c-.405.14345-.812.30135-1.211.483l.015-.15583a17.01665,17.01665,0,0,1,.944-3.68738,15.32264,15.32264,0,0,1,1.615-2.997A13.469,13.469,0,0,1,7.499,6.05394a13.32031,13.32031,0,0,1,2.664-1.66773A15.98444,15.98444,0,0,1,14.12,3.25305a20.78843,20.78843,0,0,1,5.54-.00722,17.58288,17.58288,0,0,1,4.366,1.26731,16.37014,16.37014,0,0,1,3.324,2.0857,16.01366,16.01366,0,0,1,2.48,2.66569,15.04468,15.04468,0,0,1,1.587,2.902,12.65409,12.65409,0,0,1,.674,2.58623c.012.11352.021.22808.029.3416C31.814,14.95815,31.507,14.83225,31.2,14.71356Z" transform="translate(0.00344 0)"/>
</svg>
