<?xml version="1.0" encoding="utf-8"?>
<!-- Generator: Adobe Illustrator 21.0.0, SVG Export Plug-In . SVG Version: 6.00 Build 0)  -->
<svg version="1.1" id="Слой_1" xmlns="http://www.w3.org/2000/svg" xmlns:xlink="http://www.w3.org/1999/xlink" x="0px" y="0px"
	 viewBox="0 0 36 36" style="enable-background:new 0 0 36 36;" xml:space="preserve">
<style type="text/css">
	.st0{fill:#66CCCC;}
</style>
<path class="st0" d="M35.8,10.4l-0.1-0.1c-0.8-1.2-1.9-1.7-3.3-1.7c0.3-1.3,0-2.5-0.9-3.6c-0.4-0.4-0.8-0.6-1.4-0.6
	c-0.7,0-1.4,0.4-1.7,1.1c-0.3,0.6-0.1,1.3,0.4,1.8C28.9,7.5,29,7.6,29,7.8c0,0.6-0.5,1.6-2.4,3.4c-0.5-0.1-1.1-0.2-1.7-0.2
	c-1.1,0-2.4,0.2-3.8,0.5c-1.8-0.9-3.8-1.4-5.8-1.4C6.8,10.1,0,19,0,24.9C0,33,4.1,36,15.3,36c11.1,0,15.3-3,15.3-11.1
	c0-2.2-0.8-4.6-2.2-6.8c0.4-1.3,0.7-2.8,0.6-4c2-1.5,3-1.8,3.5-1.8c0.3,0,0.3,0.1,0.4,0.1c0.3,0.5,0.8,0.8,1.3,0.8
	c0.6,0,1.2-0.4,1.5-0.9C36.1,11.7,36.1,11,35.8,10.4z M24.5,13.7c0.1,0,0.2,0,0.4,0c0.5,0,0.9,0,1.1,0.1c0.2,0,0.3,0.1,0.4,0.1
	c0,0.1,0,0.2,0,0.3c0,0.3,0,0.7-0.1,1.2c0.2,0.2,0.3,0.3,0.4,0.5c0,0,0,0,0,0c-0.1-0.2-0.3-0.4-0.4-0.5c-0.1,0.8-0.4,1.9-0.8,3.1
	c-0.3,0.9-0.8,1.8-1.3,2.6c-0.7,1.2-2.2,3.1-3.9,3.1c-1,0-2.2-0.7-3.3-2.1c-1.4-1.7-1.8-3.1-1.3-4.4c0.7-1.6,2.9-2.8,5.2-3.4
	C22.1,13.9,23.4,13.7,24.5,13.7z M15.3,33.4c-11.8,0-12.7-3.7-12.7-8.5c0-4.7,5.8-12.1,12.7-12.1c0.6,0,1.3,0.1,1.9,0.2
	c-1.7,0.9-3.1,2.1-3.8,3.7c-0.7,1.5-1,4,1.7,7.2c1.7,2,3.4,3,5.3,3c2.6,0,5-2,6.8-5.6c0.6,1.3,0.9,2.5,0.9,3.7
	C28,29.7,27,33.4,15.3,33.4z M33,11.6c-0.8-1.1-4,1.2-4.2,1.1c-0.2-0.1-1-0.9-1-1.1c0-0.2,2.8-3.1,1.9-4.2C29,6.8,30,6,30.7,6.6
	c0.9,1.1,0.8,2.2,0,3.4c1.3-0.5,2.6-0.5,3.3,0.7C34.4,11.5,33.3,12.3,33,11.6z"/>
</svg>
