<?xml version="1.0" encoding="utf-8"?>
<!-- Generator: Adobe Illustrator 21.0.0, SVG Export Plug-In . SVG Version: 6.00 Build 0)  -->
<svg version="1.1" id="Слой_2" xmlns="http://www.w3.org/2000/svg" xmlns:xlink="http://www.w3.org/1999/xlink" x="0px" y="0px"
	 viewBox="0 0 36 36" style="enable-background:new 0 0 36 36;" xml:space="preserve">
<style type="text/css">
	.st0{fill:#4169E1;}
</style>
<path class="st0" d="M19.7,30.3c1.5-0.6,2.9-1.1,4.4-1.7c1.9-0.8,3.8-1.5,5.7-2.4c1.9-0.8,4.1-1.5,6-2.4c0.1,0,0.2-0.1,0.2-0.2
	c0-1.2,0-2.6,0-3.8c0-0.1-0.1-0.2-0.2-0.2c-0.6-0.3-1.5-0.5-2.2-0.8c-2.2-0.9-4.4-1.7-6.6-2.7c-1.6-0.6-3.3-1.3-4.9-2
	c-1.7-0.7-3.3-1.3-5-2.1c-0.9-0.3-1.7-0.7-2.6-1c-0.3-0.1-0.7-0.3-1.2-0.4c0,7.4,0,14.8,0,22.3C13.4,32.9,17.8,31.2,19.7,30.3z
	 M36,26.8c0-0.5,0-1,0-1.6c-0.1,0-0.2,0.1-0.2,0.1c-1,0.4-1.9,0.7-2.9,1.1c-2.1,0.8-4.4,1.6-6.5,2.6c-2.1,0.8-4.4,1.6-6.5,2.6
	c-2,0.8-6.6,2.5-6.6,2.6c0,0.3,0,0.6,0,0.8c0,0.7,0.6,1,1.7,1c2.3,0,4.6,0,6.9,0c4.1,0,8.3,0,12.4,0c0.1,0,0.2,0,0.3,0
	c0.7-0.1,1.4-0.4,1.4-0.9C36,32.2,36,29.5,36,26.8z M36,18.2c0-3.1,0-6.1,0-9.2c-3.7,1.5-7.4,3.1-11.3,4.5
	C28.5,15.1,32.2,16.7,36,18.2z M29.1,3.2c-1.4-0.2-2.7,0.4-3,1.4C26,4.8,26,4.9,26,5.1c-0.1,0-0.1,0-0.1,0c-0.4-0.5-1.1-1-1.9-1.1
	c-0.9-0.1-1.7,0.1-2.3,0.5c-0.2,0.2-0.9,0.5-0.9,1.2c0.2,3.9-2.5-0.7-5,0.4c-0.9,0.5-1.6,1.4-0.8,2.5c-0.5,0.2-1,0.4-1.3,0.6
	l-0.4,0.4c0,0,0.1-9.2,10.1-9.7C23.3,0,35-0.2,36,8.3l-0.1-0.1c-0.2-0.9-0.7-1.7-1.5-2.2c-0.9-0.5-2.1-0.5-2.9,0.2l-0.1,0.1
	c-1.4,0.9-0.3-0.7-0.3-0.8C31.4,4.5,30.5,3.4,29.1,3.2z"/>
</svg>
