<?xml version="1.0" encoding="utf-8"?>
<!-- Generator: Adobe Illustrator 21.0.0, SVG Export Plug-In . SVG Version: 6.00 Build 0)  -->
<svg version="1.1" id="Слой_1" xmlns="http://www.w3.org/2000/svg" xmlns:xlink="http://www.w3.org/1999/xlink" x="0px" y="0px"
	 viewBox="0 0 36 36" style="enable-background:new 0 0 36 36;" xml:space="preserve">
<style type="text/css">
	.st0{fill:#66CCCC;}
</style>
<path class="st0" d="M14.3,22.9L19,21l-6.3-2.6L14.3,22.9z M16.6,28.9l0.8,2l2.2-0.9L16.6,28.9z M27.9,24.7L21.1,22l-6.2,2.6
	l0.8,2.4l5.8,2.4l5.6-2.3L27.9,24.7z M26.6,29l-2.7,1l2.2,0.9L26.6,29z M28.4,23.1l1.4-4.6l-6.5,2.7L28.4,23.1z M21.7,31l-3.8,1.5
	c0,0,0.5,0.9,0.7,1.6c0.2,0.8,1.1,1.9,2.6,1.9h1.3c1.4,0,2.4-1,2.6-1.9s0.5-1.6,0.5-1.6L21.7,31z M21.1,20.2l9.2-3.7
	c0-1-1.1-1.9-2.5-1.9H14.5c-1.4,0-2.5,0.9-2.5,1.9L21.1,20.2z M30.3,5.8c-0.2,0-0.5,0-0.7,0C28.3,2.4,25,0,21.1,0s-7.1,2.4-8.4,5.8
	c-0.2,0-0.5,0-0.7,0c-3.2,0-5.8,2.7-5.8,6c0,2.7,1.7,4.8,4,5.6c-0.4-0.4-0.6-0.9-0.6-1.4c0-1.4,1.4-2.7,3.1-2.7h0.1H13h16.2h0.1h0.1
	c1.7,0,3.1,1.1,3.1,2.7c0,0.6-0.2,1-0.6,1.4c2.4-0.8,4-3,4-5.6C36.1,8.4,33.5,5.8,30.3,5.8z M25,8.4c-0.1-0.9-0.8-1.8-1.5-2.3
	c-0.3-0.2-0.7-0.4-1-0.6c-0.1,0-0.1-0.1-0.2-0.1c0,0,0,0-0.1,0c-1.4-0.6-0.8-2.8,0.7-2.4c2.3,0.9,4.3,2.7,4.4,5.3
	C27.4,9.9,25.1,9.9,25,8.4z"/>
</svg>
