<?xml version="1.0" encoding="utf-8"?>
<!-- Generator: Adobe Illustrator 21.0.0, SVG Export Plug-In . SVG Version: 6.00 Build 0)  -->
<svg version="1.1" id="Слой_1" xmlns="http://www.w3.org/2000/svg" xmlns:xlink="http://www.w3.org/1999/xlink" x="0px" y="0px"
	 viewBox="0 0 36 36" style="enable-background:new 0 0 36 36;" xml:space="preserve">
<style type="text/css">
	.st0{fill:#66CCCC;}
</style>
<path class="st0" d="M12.5,1.7c1.1,0.8,2.2,1.8,3.2,2.7c0.9,0.8,2.1,1.8,2.8,2.8c-1.8,0.8-2.9,2.5-2.9,4.4c0,2.8,2.4,5,5.3,5
	s5.3-2.2,5.3-5s-2.4-5-5.3-5c-0.1,0-0.1,0-0.2,0c-0.8-1.2-2-2.3-3-3.3c-1-1-2.3-2.1-3.6-3.1C13-0.6,11.4,0.8,12.5,1.7z M36,21.8
	c0-0.3,0-0.6,0-1c0.1-3.1-3.7-6.9-5.4-9.5c-0.3-0.5-0.9-0.7-1.5-0.6c-0.4,0.1-0.8,0.2-1.2,0.3c0,0.1,0,0.3,0,0.4
	c0,3.6-3.1,6.5-6.9,6.5c-2.9,0-5.4-1.7-6.4-4.1c-4.5,1-9.1,1.9-13.6,2.9c-0.8,0.2-1,0.8-0.9,1.3c0,0.1,0,0.2,0,0.3
	c0,4.6,0,9.3,0,13.8c0,0.8,0.6,1.2,1.3,1.3C12.3,34.3,23.1,35.2,34,36c0.8,0.1,1.3-0.6,1.3-1.3c0-0.1,0,0.5,0-0.2s-0.4-1.7-1.2-2
	l0,0c0.8-0.2,1.3-1.4,1.4-1.6c0.1-0.2,0.1-0.8,0-1.1c-0.1-0.3-0.4-1.7-1.2-2l0,0c0.8-0.2,1.3-1.3,1.4-1.6c0-0.3,0.1-0.7,0-1.1
	c0-0.4-0.5-1.6-1.2-1.9l0,0C35.3,23.1,35.8,22.1,36,21.8z M29.3,33.3L3.7,31.2c-0.8-0.1-1.4-0.7-1.4-1.4c0-0.7,0.6-1.3,1.4-1.2
	l25.6,2.1c0.8,0.1,1.4,0.7,1.4,1.4C30.7,32.8,30,33.4,29.3,33.3z M29.3,29.5L3.7,27.4c-0.8-0.1-1.4-0.7-1.4-1.4s0.6-1.3,1.4-1.2
	l25.6,2.1c0.8,0.1,1.4,0.7,1.4,1.4S30,29.6,29.3,29.5z M29.3,25.5l-25.6-2c-0.7-0.1-1.4-0.7-1.4-1.4s0.6-1.3,1.4-1.2L29.3,23
	c0.8,0.1,1.4,0.7,1.4,1.4S30,25.6,29.3,25.5z"/>
</svg>
