<?xml version="1.0" encoding="utf-8"?>
<!-- Generator: Adobe Illustrator 21.0.0, SVG Export Plug-In . SVG Version: 6.00 Build 0)  -->
<svg version="1.1" id="Слой_1" xmlns="http://www.w3.org/2000/svg" xmlns:xlink="http://www.w3.org/1999/xlink" x="0px" y="0px"
	 viewBox="0 0 36 36" style="enable-background:new 0 0 36 36;" xml:space="preserve">
<style type="text/css">
	.st0{fill:#66CCCC;}
</style>
<path class="st0" d="M35.4,14.3C32.7,9.3,23.7,8.1,18.2,8c-0.1,0-0.3,0-0.4,0C12.4,8.1,3.2,9.3,0.6,14.4C0,15-0.2,18.3,0.1,19.6
	c1.3,5.4,4.3,9.8,8.5,12.5c0,0,0,0-0.1,0c-2.1,0-2.1,3.9,0,3.9c6.3,0,12.6,0,18.9,0c2.1,0,2.1-3.9,0-3.9c0,0-0.1,0-0.1,0
	c4.1-2.6,6.9-6.8,8.4-12C36.2,18.6,36,15.7,35.4,14.3z M18,31.6c-7-0.4-11.8-4.8-14-11.2c4.2,2,9.7,1.9,14,1.9c0,0,0,0,0,0
	c0,0,0,0,0,0c4.4,0,9.8,0,14-2C30,26.8,25,31.2,18,31.6z M31.5,16.6c-0.2,0.2-0.5,0.3-0.8,0.4c0-0.1,0-0.2,0-0.3
	c0-2-5.9-3.6-13.1-3.6c-7.1,0-12.9,1.6-13.1,3.5c-0.5-0.3-0.9-0.7-1.2-1.1c0,0,0,0,0,0c0,0,0,0,0-0.1c2-3.4,12.2-3.9,14.3-4
	c0.1,0,0.3,0,0.4,0c4.7,0.1,10.3,0.6,13.9,3.9c0.1,0.1,0.2,0.2,0.3,0.4C32.3,16,31.9,16.4,31.5,16.6z"/>
</svg>
