<?xml version="1.0" encoding="utf-8"?>
<!-- Generator: Adobe Illustrator 21.0.0, SVG Export Plug-In . SVG Version: 6.00 Build 0)  -->
<svg version="1.1" id="Слой_1" xmlns="http://www.w3.org/2000/svg" xmlns:xlink="http://www.w3.org/1999/xlink" x="0px" y="0px"
	 viewBox="0 0 36 36" style="enable-background:new 0 0 36 36;" xml:space="preserve">
<style type="text/css">
	.st0{fill:#66CCCC;}
</style>
<path class="st0" d="M29,26.7c1.9,0,3.6,0,5.5,0c0.7,0,1.2,0.4,1.4,1.3c0.2,0.7,0,1.5-0.6,2.1c-2,1.9-3.9,3.6-5.8,5.4
	c-0.4,0.3-0.8,0.5-1.3,0.5c-0.7,0-1.4,0-2.2,0H10c-0.7,0-1.4,0-2.2,0c-0.5,0-0.9-0.2-1.3-0.5c-1.9-1.8-3.8-3.5-5.8-5.4
	c-0.6-0.5-0.8-1.3-0.6-2.1c0.2-0.8,0.7-1.3,1.4-1.3c1.9,0,3.6,0,5.5,0 M14.6,25.7c0.2-1.4,0.7-2.4,2-3c-0.3,1-0.3,2-0.4,3h1.3
	c0-1.3,0.1-3.2,0.9-3.3c1.4,0.2,2.2,1.8,2.4,3.3h1.3c-0.2-2-1.2-4.1-3.2-4.7C18.8,21,18.4,21,18.3,21c0,0,0,0-0.1,0
	c-2.9-0.1-4.6,2-4.8,4.8H14.6L14.6,25.7z M3.6,25.7c0.1-4,1.9-7.7,5.7-8.6c-0.2,0.3-0.3,0.7-0.5,1.2c-3.1,1-4.3,4.1-4.1,7.4h1.2
	c-0.2-2.3,0.5-4.5,2.3-5.6c-0.6,1.9-0.9,3.8-1.2,5.6h1.3c0.5-3.6,1.5-7.2,3.7-9.9c2.2-2.6,8.5-4.1,10.8-0.6
	c-0.2,0.1-0.4,0.1-0.6,0.2c-0.1-0.1-0.1-0.1-0.2-0.2c-3.2-1.4-6.4-1.4-9.1,1.3c-2.3,2.2-3.1,6-3.6,9.4h1.3c0.4-2.9,1.2-5.7,2.9-7.9
	c1.8-2.4,4.4-2.5,6.9-1.8c-1.8,0.7-3.5,1.7-5,2.9c-0.1,0.1-0.1,0.1-0.2,0.2c-2.3,1.2-3.5,3.7-3.6,6.8h1.3c0.1-3.3,1.6-5.8,5.2-6.1
	c3.2-0.2,4.5,3.2,4.7,6.1h1.3c-0.1-2.4-1-5.2-2.9-6.6c0.5-0.2,1.1-0.4,1.6-0.5c0.8,2.3,2.2,4.4,2.2,7h1.3c-0.1-2.6-1.3-4.8-2.2-7.2
	c0.4,0,0.7,0,1.1-0.1c0.8,2.4,2.2,4.7,2.4,7.3h1.1c-0.1-2.4-1.2-4.7-2.2-6.9c2.8,0.8,3.8,3.7,3.4,6.7c0,0.1,0,0.1,0,0.2h1.2
	c0.5-3.7-0.8-7.3-4.4-8.2c0,0,0,0-0.1,0c0.2-0.3,0.2-0.6,0.2-1c3.9,1,5.6,5.1,5.4,9.2h1.2c0.2-5.3-2.4-10-7.5-10.8
	c-0.1,0-1.5-0.3-2.3-0.2c0-0.1,0-0.1-0.1-0.2c-2.3-3.9-7.6-3.3-11-1.5c-1.1,0.6-2.1,1.5-2.8,2.6c-0.1,0-0.2,0-0.2,0
	c-4.9,0.6-7.5,5.1-7.5,10L3.6,25.7L3.6,25.7z M23.5,16.2c0.6-0.1,1.5-0.6,1.8-0.2s-0.4,1.1-1,1.1c-0.2,0-0.4,0-0.7,0.1
	c-1.5,0.1-2.7,0.5-4,1.3c-0.3-0.1-0.6-0.1-0.9-0.1C20.2,17.4,21.8,16.8,23.5,16.2z"/>
</svg>
