<?xml version="1.0" encoding="utf-8"?>
<!-- Generator: Adobe Illustrator 21.0.0, SVG Export Plug-In . SVG Version: 6.00 Build 0)  -->
<svg version="1.1" id="Слой_1" xmlns="http://www.w3.org/2000/svg" xmlns:xlink="http://www.w3.org/1999/xlink" x="0px" y="0px"
	 viewBox="0 0 36 36" style="enable-background:new 0 0 36 36;" xml:space="preserve">
<style type="text/css">
	.st0{fill:#4169E1;}
</style>
<path class="st0" d="M36,12.2C35.7,8.8,28.6,6,19.8,6S3.9,8.7,3.6,12.2l0,0v2.1v13.5v2.1l0,0C3.9,33.3,11,36,19.8,36
	s15.9-2.7,16.2-6.2l0,0v-2.1V14.3V12.2L36,12.2L36,12.2z M19.8,18.7c-7.2,0-13.1-2.2-13.1-4.9s5.9-4.9,13.1-4.9s13.1,2.2,13.1,4.9
	C32.8,16.6,27,18.7,19.8,18.7z M19.8,16.7c-4.3,0-7.8-1.3-7.8-2.9s3.5-2.9,7.8-2.9s7.8,1.3,7.8,2.9C27.5,15.5,24.1,16.7,19.8,16.7z"
	/>
</svg>
