<?xml version="1.0" encoding="utf-8"?>
<!-- Generator: Adobe Illustrator 21.0.0, SVG Export Plug-In . SVG Version: 6.00 Build 0)  -->
<svg version="1.1" id="Слой_1" xmlns="http://www.w3.org/2000/svg" xmlns:xlink="http://www.w3.org/1999/xlink" x="0px" y="0px"
	 viewBox="0 0 36 36" style="enable-background:new 0 0 36 36;" xml:space="preserve">
<style type="text/css">
	.st0{fill:#4169E1;}
</style>
<path class="st0" d="M36,19c-0.2-2.4-5.3-4.4-11.5-4.4S13.1,16.6,13,19l0,0v1.5v9.6v1.5l0,0C13.1,34,18.2,36,24.4,36
	s11.4-2,11.5-4.4l0,0L36,19L36,19z M24.4,23.7c-5.2,0-9.4-1.6-9.4-3.5s4.2-3.5,9.4-3.5s9.4,1.6,9.4,3.5
	C33.7,22.2,29.6,23.7,24.4,23.7z M24.4,22.3c-3.1,0-5.5-0.9-5.5-2.1s2.5-2.1,5.5-2.1S30,19,30,20.2C29.9,21.4,27.5,22.3,24.4,22.3z"
	/>
</svg>
