<svg xmlns:svg="http://www.w3.org/2000/svg" xmlns="http://www.w3.org/2000/svg" width="136" height="36"
     viewBox="0 0 268.77 43.04" version="1.1" class="svg-logo-136x36">
    <path d="M195.6,35.56H177.83V3.89a3.74,3.74,0,0,0-7.48,0V39.3A3.74,3.74,0,0,0,174.09,43H195.6A3.74,3.74,0,1,0,195.6,35.56Z M229,1a3.74,3.74,0,0,0-5.25.62l-14,17.77a3.74,3.74,0,0,0-.8,2.32V39a3.74,3.74,0,1,0,7.48,0V23L229.62,6.2A3.74,3.74,0,0,0,229,1Z M208.91,10.46l-7-8.89A3.74,3.74,0,1,0,196,6.2l7,8.89A3.74,3.74,0,1,0,208.91,10.46Z M251.59,16.77c-8.39-1.28-9.21-3.16-9.21-5.17,0-3.4,4.63-4.43,8.52-4.43a13,13,0,0,1,9.35,4.21,4,4,0,0,0,5.47.46,3.74,3.74,0,0,0,.45-5.27C263.42,3.3,257.63,0,250.91,0c-14.86,0-16,8.88-16,11.6,0,10.41,11.17,12.23,15.39,12.86,8,1.2,10.48,2.85,10.5,6,0,4.18-5.08,5.41-9.75,5.41-6.78,0-9.82-4.61-10.82-5.49-1.54-1.37-4-1.77-5.56-.45a3.74,3.74,0,0,0-.49,5.27,22,22,0,0,0,16.74,7.72c11.18,0,17.86-4.8,17.86-12.83C268.77,20.86,258.48,17.83,251.59,16.77Z M10.85,0.15H3.74A3.74,3.74,0,0,0,0,3.89V26.64a3.74,3.74,0,1,0,7.48,0v-19h3.37a14,14,0,0,1,0,27.94h-7A3.74,3.74,0,0,0,3.9,43h7A21.45,21.45,0,0,0,10.85.15Z M154.5,12.81a3.74,3.74,0,0,0-3.74,3.74v19h-3.37a14,14,0,1,1,0-27.94h7a3.74,3.74,0,1,0,0-7.48h-7a21.45,21.45,0,0,0,0,42.9h7.11a3.74,3.74,0,0,0,3.74-3.74V16.55A3.74,3.74,0,0,0,154.5,12.81Z M106.44,43h0c-4.39,0-9.6-2.66-15.49-7.9-3.74-3.33-8-7.87-8-13.49,0-5.94,4.51-10.56,8.45-13.92,5.88-5,10.81-7.47,15.08-7.47A12.12,12.12,0,0,1,118,7.44c1.63,3.41,2.39,7.9,2.39,14.13C120.41,35.76,115.71,43,106.44,43Zm0-35.5c-1.36,0-4.52.74-10.34,5.72-4,3.39-5.89,6.13-5.89,8.38,0,2.09,1.78,4.65,5.59,8,4.33,3.85,8.21,6.06,10.64,6.06,2.17,0,6.68,0,6.68-14.1,0-5-.55-8.62-1.68-11A4.89,4.89,0,0,0,106.44,7.46Z M54.32,43h0c-9.27,0-14-7.2-14-21.4,0-6.23.76-10.72,2.39-14.13A12.12,12.12,0,0,1,54.32.17h0c4.27,0,9.2,2.44,15.08,7.47,3.93,3.36,8.44,8,8.44,13.92,0,5.62-4.29,10.16-8,13.49C63.92,40.3,58.71,43,54.32,43Zm0-35.5a4.89,4.89,0,0,0-5,3.13c-1.13,2.36-1.68,5.94-1.68,11,0,14.1,4.51,14.1,6.68,14.1,2.44,0,6.32-2.21,10.64-6.06,3.81-3.39,5.59-5.95,5.59-8,0-2.25-1.93-5-5.89-8.38-5.82-5-9-5.72-10.34-5.72h0Z"></path>
</svg>